<svg xmlns="http://www.w3.org/2000/svg" xmlns:xlink="http://www.w3.org/1999/xlink" width="625.04" height="591.812" viewBox="0 0 625.04 591.812">
  <defs>
    <linearGradient id="linear-gradient" x1="-10.18" y1="-0.057" x2="-10.672" y2="0.791" gradientUnits="objectBoundingBox">
      <stop offset="0" stop-color="#febbba"/>
      <stop offset="1" stop-color="#ff928e"/>
    </linearGradient>
    <linearGradient id="linear-gradient-2" x1="-10.549" y1="0.5" x2="-9.549" y2="0.5" xlink:href="#linear-gradient"/>
    <linearGradient id="linear-gradient-3" x1="-18.217" y1="0.5" x2="-17.217" y2="0.5" xlink:href="#linear-gradient"/>
    <linearGradient id="linear-gradient-4" x1="-9.305" y1="0.5" x2="-8.305" y2="0.5" xlink:href="#linear-gradient"/>
    <linearGradient id="linear-gradient-5" x1="-29.769" y1="0.5" x2="-28.769" y2="0.5" xlink:href="#linear-gradient"/>
    <linearGradient id="linear-gradient-6" x1="-15.333" y1="0.531" x2="-11.351" y2="0.806" xlink:href="#linear-gradient"/>
  </defs>
  <g id="Conference" transform="translate(-651.043 -653.655)">
    <g id="Group_3922" data-name="Group 3922" transform="translate(1090.356 653.655)">
      <path id="Path_1197" data-name="Path 1197" d="M2777.405,755.863a.67.67,0,0,0-.692-.354l-8.06,1.187a35.511,35.511,0,0,0-8.8-7.407l-.2-8.15a.67.67,0,0,0-.467-.622l-9.321-2.956a.669.669,0,0,0-.74.239l-4.863,6.543a35.515,35.515,0,0,0-11.464.98l-5.9-5.615a.671.671,0,0,0-.77-.109l-8.681,4.5a.67.67,0,0,0-.354.693l1.187,8.06a35.5,35.5,0,0,0-7.407,8.8l-8.15.2a.669.669,0,0,0-.621.467l-2.956,9.321a.67.67,0,0,0,.239.74l6.543,4.863a35.513,35.513,0,0,0,.98,11.463l-5.615,5.9a.67.67,0,0,0-.109.77l4.5,8.681a.67.67,0,0,0,.693.354l8.06-1.187a35.522,35.522,0,0,0,8.8,7.407l.2,8.149a.669.669,0,0,0,.467.622l9.321,2.956a.67.67,0,0,0,.74-.239l4.863-6.543a35.506,35.506,0,0,0,11.463-.98l5.9,5.615a.671.671,0,0,0,.77.109l8.681-4.5a.67.67,0,0,0,.354-.692l-1.187-8.06a35.508,35.508,0,0,0,7.407-8.8l8.149-.2a.67.67,0,0,0,.622-.467l2.956-9.321a.67.67,0,0,0-.239-.74l-6.543-4.863a35.49,35.49,0,0,0-.98-11.463l5.615-5.9a.67.67,0,0,0,.11-.77Zm-30.1,30.6a8.683,8.683,0,1,1,.734-12.257A8.683,8.683,0,0,1,2747.3,786.461Z" transform="translate(-2699.105 -737.531)" fill="#aa80f9"/>
    </g>
    <g id="Group_3924" data-name="Group 3924" transform="translate(772.181 653.655)">
      <g id="Group_3923" data-name="Group 3923" transform="translate(0)">
        <path id="Path_1198" data-name="Path 1198" d="M2596.544,672.2a.372.372,0,0,0-.385-.2l-4.476.659a19.729,19.729,0,0,0-4.89-4.113l-.113-4.527a.372.372,0,0,0-.259-.345l-5.177-1.642a.373.373,0,0,0-.411.133l-2.7,3.634a19.72,19.72,0,0,0-6.367.544l-3.278-3.119a.373.373,0,0,0-.428-.061l-4.821,2.5a.372.372,0,0,0-.2.385l.66,4.477a19.731,19.731,0,0,0-4.115,4.89l-4.526.113a.37.37,0,0,0-.345.259l-1.642,5.177a.372.372,0,0,0,.133.411l3.634,2.7a19.744,19.744,0,0,0,.544,6.367l-3.118,3.278a.372.372,0,0,0-.062.428l2.5,4.821a.371.371,0,0,0,.384.2l4.477-.659a19.712,19.712,0,0,0,4.889,4.114l.114,4.526a.371.371,0,0,0,.259.345l5.177,1.642a.372.372,0,0,0,.411-.133l2.7-3.634a19.722,19.722,0,0,0,6.367-.544l3.278,3.118a.372.372,0,0,0,.428.061l4.821-2.5a.372.372,0,0,0,.2-.385l-.66-4.477a19.719,19.719,0,0,0,4.114-4.89l4.526-.113a.373.373,0,0,0,.346-.259l1.641-5.177a.374.374,0,0,0-.132-.411l-3.635-2.7a19.71,19.71,0,0,0-.545-6.367l3.119-3.278a.373.373,0,0,0,.061-.428Zm-16.72,16.994a4.822,4.822,0,1,1,.408-6.808A4.822,4.822,0,0,1,2579.824,689.19Z" transform="translate(-2553.056 -662.014)" fill="#aa80f9"/>
      </g>
    </g>
    <g id="Group_3929" data-name="Group 3929" transform="translate(1075.375 759.716)">
      <g id="Group_3926" data-name="Group 3926" transform="translate(0 0)" opacity="0.3">
        <path id="Path_1203" data-name="Path 1203" d="M2582.408,1317.521a2,2,0,0,0,1.194-.183c.974-.481,1.956-.991,2.919-1.517a2.006,2.006,0,0,0-1.922-3.521c-.916.5-1.848.984-2.773,1.441a2.006,2.006,0,0,0,.582,3.781Z" transform="translate(-2580.708 -1312.053)" fill="#91b3fa"/>
      </g>
    </g>
    <g id="Group_3930" data-name="Group 3930" transform="translate(651.043 695.576)">
      <path id="Path_1207" data-name="Path 1207" d="M479.415,1107.553l556.714-12.5c22.414-.5,40.4,25.037,39.072,55.469l-19.162,437.808c-1.049,23.961-15.555,42.73-33.2,42.962L487.7,1638.325c-13.218.173-24.139-13.986-24.642-31.95l-12.8-456.934C449.619,1126.828,462.778,1107.927,479.415,1107.553Z" transform="translate(-450.23 -1095.047)" fill="#ff889b"/>
      <path id="Path_1208" data-name="Path 1208" d="M520.187,1146.737l537.41-11.891c21.636-.479,39,23.82,37.717,52.774l-18.5,416.532c-1.013,22.8-15.016,40.654-32.053,40.875l-516.581,6.689c-12.76.165-23.3-13.306-23.788-30.4l-12.359-434.729C491.423,1165.075,504.127,1147.092,520.187,1146.737Z" transform="translate(-479.664 -1123.078)" fill="#fff"/>
      <path id="Path_1209" data-name="Path 1209" d="M570,1196.666l501.75-11.324c20.2-.456,36.415,22.682,35.214,50.253l-17.27,396.637c-.945,21.708-14.019,38.712-29.926,38.922l-482.3,6.37c-11.913.157-21.755-12.67-22.209-28.945l-11.54-413.965C543.141,1214.128,555,1197,570,1196.666Z" transform="translate(-514.66 -1158.649)" fill="#e6e6e6" opacity="0.16"/>
      <path id="Path_1210" data-name="Path 1210" d="M537.332,1385.37c-.988,0-1.79-1.075-1.792-2.4s.8-2.413,1.788-2.415l577.217-1.691h0c.988,0,1.789,1.075,1.792,2.4s-.8,2.412-1.788,2.415l-577.217,1.691Z" transform="translate(-515.359 -1294.975)" fill="#ff889b"/>
      <path id="Path_1211" data-name="Path 1211" d="M1172.823,1712.781a2.409,2.409,0,0,1-2.408-2.376l-6.6-465.267a2.409,2.409,0,1,1,4.818-.068l6.6,465.267a2.41,2.41,0,0,1-2.375,2.444Z" transform="translate(-1158.267 -1199.055)" fill="#ff889b"/>
      <path id="Path_1212" data-name="Path 1212" d="M1894.3,1690.214a2.409,2.409,0,0,1-2.41-2.41V1213.069a2.41,2.41,0,1,1,4.819,0V1687.8A2.409,2.409,0,0,1,1894.3,1690.214Z" transform="translate(-1671.148 -1176.488)" fill="#ff889b"/>
      <path id="Path_1213" data-name="Path 1213" d="M2584.61,1690.211a2.41,2.41,0,0,1-2.409-2.38l-5.864-474.735a2.41,2.41,0,0,1,2.38-2.439,2.386,2.386,0,0,1,2.439,2.379l5.863,474.736a2.41,2.41,0,0,1-2.379,2.439Z" transform="translate(-2153.297 -1176.486)" fill="#ff889b"/>
      <path id="Path_1215" data-name="Path 1215" d="M1254.056,1285.892h0c0,6.2,2.788,11.217,6.227,11.217H1412.3c3.439,0,6.227-5.022,6.227-11.217h0c0-6.2-2.788-11.218-6.227-11.218H1260.283C1256.844,1274.674,1254.056,1279.7,1254.056,1285.892Z" transform="translate(-1221.837 -1221.583)" fill="#ff4a67"/>
      <path id="Path_1216" data-name="Path 1216" d="M1969.838,1280.247h0c0,6.2,2.9,11.217,6.468,11.217h157.9c3.572,0,6.468-5.022,6.468-11.217h0c0-6.2-2.9-11.217-6.468-11.217h-157.9C1972.734,1269.03,1969.838,1274.052,1969.838,1280.247Z" transform="translate(-1726.058 -1217.607)" fill="#ff4a67"/>
      <path id="Path_1217" data-name="Path 1217" d="M2670.414,1280.247h0c0,6.2,2.281,11.217,5.1,11.217H2799.9c2.813,0,5.095-5.022,5.095-11.217h0c0-6.2-2.281-11.217-5.095-11.217H2675.51C2672.7,1269.03,2670.414,1274.052,2670.414,1280.247Z" transform="translate(-2219.568 -1217.607)" fill="#ff4a67"/>
      <rect id="Rectangle_184" data-name="Rectangle 184" width="150.055" height="88.006" rx="9.143" transform="translate(443.108 109.859)" fill="#aa80f9"/>
      <rect id="Rectangle_185" data-name="Rectangle 185" width="150.055" height="88.006" rx="30.933" transform="translate(256.427 226.197)" fill="#ff6c83"/>
      <rect id="Rectangle_190" data-name="Rectangle 190" width="150.055" height="88.006" rx="30.933" transform="translate(443.108 217.328)" fill="#ff6c83"/>
      <rect id="Rectangle_187" data-name="Rectangle 187" width="150.055" height="88.006" rx="9.143" transform="translate(46.728 109.859)" fill="#ff6c83"/>
      <rect id="Rectangle_188" data-name="Rectangle 188" width="150.055" height="88.006" rx="9.143" transform="translate(46.728 227.859)" fill="#aa80f9"/>
      <rect id="Rectangle_189" data-name="Rectangle 189" width="150.055" height="88.006" rx="9.143" transform="translate(46.728 345.859)" fill="#ff889b"/>
    </g>
    <g id="Group_3938" data-name="Group 3938" transform="translate(889.599 808.099)">
      <path id="Path_1222" data-name="Path 1222" d="M2341.34,1799.693s-35.714,45.726,5.033,92.233l15.319-1.427s-29.489-47.35-16.355-85.094l21.7,1.584,12-7.822Z" transform="translate(-2216.112 -1703.576)" fill="url(#linear-gradient)"/>
      <path id="Path_1223" data-name="Path 1223" d="M2442.031,2529.626s28.936,63.067,44.118,89.189c0,0,3.015,16.437,0,21.6l-2.57,1.142,11.993-.356s1.066-22.109.233-23.344a3.053,3.053,0,0,0-2.5-1.154s-5.143-40.741-20.036-49.437l-14.433-49.712Z" transform="translate(-2297.243 -2209.636)" fill="url(#linear-gradient-2)"/>
      <path id="Path_1224" data-name="Path 1224" d="M2565.272,2880.68c-.018.29,9.365.157,14.462.064a4.055,4.055,0,0,0,3.888-3.2l3.848-20.222a3.635,3.635,0,0,0-2.762-4.224l-2.148-.491s-3.064,4.2-2.1,8.162,1.823,14.212-.615,15.407-9.451,1.4-9.451,1.4S2565.433,2878.076,2565.272,2880.68Z" transform="translate(-2384.058 -2445.658)" fill="#3b3b84"/>
      <path id="Path_1225" data-name="Path 1225" d="M2347.959,2923.7a1.059,1.059,0,0,0,.535,1.979c8.53-.085,27.642-.355,29.34-1.062,2.192-.912-.8-8.791-3.948-11.458l-17.385,5.674Z" transform="translate(-2230.598 -2488.308)" fill="#3b3b84"/>
      <path id="Path_1226" data-name="Path 1226" d="M2330.98,2544.776s18.7,90.46,23.989,108.106l-12.513,7.853s6.271-1.067,10.921-1.4,8.927-5.675,8.927-5.675l-1.5-2.391s-4.689-89.967-3.547-100.183Z" transform="translate(-2219.015 -2228.808)" fill="url(#linear-gradient-3)"/>
      <path id="Path_1227" data-name="Path 1227" d="M2123.743,1767.283s-2.58,47.056,40.263,71.1l-10.315,23.524s-38.787-23.461-37.353-87.447a7.433,7.433,0,0,0-1.821-5.011l-8.243-9.564a14.8,14.8,0,0,1-3.147-13.253l1.084-4.337a2.25,2.25,0,0,1,3.312-1.4l.862.5a15.133,15.133,0,0,1,6.214,6.907l4.049,9.049a8.7,8.7,0,0,0,8.687,5.113l2.5-.216Z" transform="translate(-2058.196 -1662.313)" fill="url(#linear-gradient-4)"/>
      <path id="Path_1228" data-name="Path 1228" d="M2280.475,2059.333c7.167,1.987,31.45,8.375,46.608,8.114l-9.307,52.522.741,8.567-30.346-.136s-8.542-19.84-15.282-29.73c-1.946-2.857-.5-6.264.606-9.54l-1.516-1.009a4.126,4.126,0,0,1-1.635-4.718l7.39-22.609A2.257,2.257,0,0,1,2280.475,2059.333Z" transform="translate(-2176.156 -1886.787)" fill="#aa80f9"/>
      <path id="Path_1229" data-name="Path 1229" d="M2317.672,2275.536l.6,5.19s-8.575,25.682,4.288,85.666c0,0,27.86,7.892,50.757-10.993,0,0-6.459-56.616-8.224-59.253-8.788-13.135-14.641-15.991-14.641-15.991l-.264-5.67S2325.695,2278.913,2317.672,2275.536Z" transform="translate(-2208.088 -2038.406)" fill="#5252a3"/>
      <path id="Path_1230" data-name="Path 1230" d="M2363.109,2027.5c-.107-.141,6.335-19.449,6.335-19.449l9.228.837,3.6,21.9S2367.815,2033.711,2363.109,2027.5Z" transform="translate(-2241.647 -1850.721)" fill="url(#linear-gradient-5)"/>
      <path id="Path_1231" data-name="Path 1231" d="M2369.7,1902.787c-.615.383-19.717,8.278-15.613,28.109a3.724,3.724,0,0,0,2.118,2.653,32.367,32.367,0,0,0,16.055,2.658c10.007-1.017,16.564-18.479,16.285-23.561S2375.8,1898.99,2369.7,1902.787Z" transform="translate(-2234.889 -1775.905)" fill="url(#linear-gradient-6)"/>
      <path id="Path_1232" data-name="Path 1232" d="M2382.45,1877.851c-.5.066-11.039,3.736-5.813,11.371s7.185,12.13,4.714,15.483c-2.251,3.054-7.239,1.313-6.8,7.668a3.565,3.565,0,0,1-1.519,3.222c-4.7,3.181-16.168,12.974-4.807,26.94a3.557,3.557,0,0,1,.4,3.98c-3.328,5.969-10.318,23.454,14.988,33.153,25.006,9.584,34.034-6.762,36.556-13.295a3.486,3.486,0,0,1,3.45-2.207c2.748.13,6.642-.328,6.462-4a9.175,9.175,0,0,0-3.145-5.832,3.483,3.483,0,0,1,.67-5.486,6.821,6.821,0,0,0,3.37-4.238c1.516-5.615-1.509-22.406-17.6-25.251a3.8,3.8,0,0,1-2.944-2.845c0-.02-.006-.04-.01-.06a3.481,3.481,0,0,1,1.293-3.421c2.57-1.885,5.865-5.681,3.188-11.767a13.188,13.188,0,0,0-10.31-7.8,3.505,3.505,0,0,1-2.872-4.19C2402.858,1883.907,2401.864,1875.306,2382.45,1877.851Z" transform="translate(-2241.821 -1758.679)" fill="#263238"/>
      <g id="Group_3934" data-name="Group 3934" transform="translate(0)">
        <path id="Path_1233" data-name="Path 1233" d="M1959.245,1476.844l173.706-1.095a6.921,6.921,0,0,1,7.177,6.747l-.731,90.118a6.942,6.942,0,0,1-7.343,6.642l-171.825-4.85a6.914,6.914,0,0,1-6.915-6.607l-1.15-84.172A6.912,6.912,0,0,1,1959.245,1476.844Z" transform="translate(-1952.164 -1475.749)" fill="#ff889b"/>
        <path id="Path_1234" data-name="Path 1234" d="M2146.343,1586.88l-171.865-4.851a1.2,1.2,0,0,1-1.189-1.169l-1.15-84.174a1.14,1.14,0,0,1,.364-.857,1.221,1.221,0,0,1,.854-.343l173.707-1.1a1.23,1.23,0,0,1,.863.338,1.145,1.145,0,0,1,.37.858l-.731,90.116A1.208,1.208,0,0,1,2146.343,1586.88Zm.723-91.924,0,.564-173.707,1.1,1.055,84.228.093.056,171.849,4.851.808-90.173Z" transform="translate(-1966.234 -1488.881)" fill="#fff" opacity="0.68"/>
        <path id="Path_1235" data-name="Path 1235" d="M2063.018,1523.9h0c0,2.906,1.365,5.262,3.048,5.262h111.874c1.684,0,3.048-2.356,3.048-5.262h0c0-2.906-1.364-5.262-3.048-5.262H2066.066C2064.383,1518.634,2063.018,1520.99,2063.018,1523.9Z" transform="translate(-2030.253 -1505.958)" fill="#fff" opacity="0.85"/>
      </g>
      <g id="Group_3937" data-name="Group 3937" transform="translate(53.527 27.416)" opacity="0.85">
        <g id="Group_3935" data-name="Group 3935">
          <path id="Path_1236" data-name="Path 1236" d="M2151.9,1629.685l-5.929-3.484a2.27,2.27,0,0,1-1.069-2.4l.942-4.662a26.7,26.7,0,0,1-4.024-5.333l-4.75-.371a2.275,2.275,0,0,1-2.012-1.691l-1.727-6.654a2.268,2.268,0,0,1,.941-2.455l3.965-2.632a26.674,26.674,0,0,1,.921-6.617l-3.089-3.612a2.268,2.268,0,0,1-.233-2.624l3.481-5.923a2.274,2.274,0,0,1,2.4-1.075l4.663.943a26.675,26.675,0,0,1,5.333-4.024l.371-4.746a2.269,2.269,0,0,1,1.69-2.017l6.651-1.727a2.271,2.271,0,0,1,2.458.94l2.632,3.965a26.515,26.515,0,0,1,6.617.922l3.612-3.088a2.267,2.267,0,0,1,2.625-.235l5.922,3.481a2.268,2.268,0,0,1,1.075,2.4l-.942,4.662a26.669,26.669,0,0,1,4.024,5.333l4.741.371a2.254,2.254,0,0,1,2.021,1.69l1.727,6.651a2.268,2.268,0,0,1-.94,2.458l-3.966,2.633a26.671,26.671,0,0,1-.922,6.616l3.09,3.614a2.266,2.266,0,0,1,.233,2.622l-3.483,5.925a2.28,2.28,0,0,1-2.4,1.073l-4.662-.942a26.644,26.644,0,0,1-5.333,4.023l-.371,4.745a2.27,2.27,0,0,1-1.69,2.018l-6.65,1.725a2.272,2.272,0,0,1-2.46-.939l-2.632-3.965a26.632,26.632,0,0,1-6.617-.922l-3.616,3.091a2.27,2.27,0,0,1-2.62.23Zm6.338-7.031a23.118,23.118,0,0,0,7.432,1.035l.991-.024,3.193,4.811,4.822-1.252.45-5.757.878-.461a23.132,23.132,0,0,0,5.99-4.52l.684-.717,5.657,1.143,2.524-4.294-3.75-4.387.294-.947a23.132,23.132,0,0,0,1.035-7.432l-.024-.99,4.811-3.195-1.251-4.821-5.758-.451-.462-.877a23.119,23.119,0,0,0-4.519-5.99l-.718-.684,1.143-5.657-4.294-2.524-4.388,3.75-.947-.294a23.036,23.036,0,0,0-7.431-1.035l-.991.024-3.195-4.812-4.822,1.253-.45,5.757-.878.461a23.132,23.132,0,0,0-5.99,4.519l-.684.717-5.657-1.144-2.524,4.295,3.75,4.386-.294.947a23.145,23.145,0,0,0-1.035,7.432l.024.991-4.812,3.2,1.253,4.822,5.757.451.461.877a23.123,23.123,0,0,0,4.52,5.99l.718.684-1.144,5.657,4.3,2.524,4.386-3.75Zm31.031-5.554-.009,0Zm-50.468-29.661,0,0Zm2.211-3.766h0Zm51.9,7.245h0Zm-33.018-19.41,0,0Zm18.186,2.543,0,0Zm-22.113,42.152a18.368,18.368,0,0,1-6.816-7.028,1.8,1.8,0,0,1,3.154-1.721,14.753,14.753,0,1,0-1.072-11.717,1.8,1.8,0,0,1-3.41-1.127,18.459,18.459,0,0,1,1.615-3.561,18.4,18.4,0,1,1,6.531,25.155Z" transform="translate(-2133.264 -1568.508)" fill="#fff"/>
          <path id="Path_1237" data-name="Path 1237" d="M2216.747,1663.16a7.9,7.9,0,0,1-.075-11.169h0a7.894,7.894,0,1,1,.075,11.169Zm5.517-9.928a4.278,4.278,0,0,0-3.035,1.282h0a4.3,4.3,0,1,0,3.776-1.224A4.375,4.375,0,0,0,2222.264,1653.232Z" transform="translate(-2190.416 -1625.66)" fill="#fff"/>
        </g>
        <g id="Group_3936" data-name="Group 3936" transform="translate(68.538 8.572)">
          <path id="Path_1238" data-name="Path 1238" d="M2377.327,1628.079l-.585-1.951a13.351,13.351,0,0,1-2.563-1.185l-1.864.816a1.573,1.573,0,0,1-1.789-.375l-2.242-2.432a1.575,1.575,0,0,1-.226-1.81l.966-1.792a13.276,13.276,0,0,1-.973-2.651l-1.9-.743a1.574,1.574,0,0,1-1-1.528l.135-3.3a1.579,1.579,0,0,1,1.12-1.442l1.951-.585a13.312,13.312,0,0,1,1.185-2.563l-.815-1.863a1.574,1.574,0,0,1,.374-1.79l2.435-2.245a1.574,1.574,0,0,1,1.807-.224l1.792.966a13.286,13.286,0,0,1,2.651-.973l.742-1.9a1.577,1.577,0,0,1,1.529-1l3.3.134a1.586,1.586,0,0,1,1.449,1.12l.584,1.952a13.279,13.279,0,0,1,2.564,1.185l1.854-.812a1.575,1.575,0,0,1,1.8.37l2.24,2.432a1.573,1.573,0,0,1,.228,1.811l-.966,1.792a13.347,13.347,0,0,1,.973,2.651l1.9.743a1.575,1.575,0,0,1,1,1.528l-.135,3.3a1.572,1.572,0,0,1-1.12,1.443l-1.951.585a13.363,13.363,0,0,1-1.185,2.563l.815,1.863a1.568,1.568,0,0,1-.374,1.79l-2.43,2.24a1.574,1.574,0,0,1-1.813.228l-1.792-.965a13.311,13.311,0,0,1-2.651.973l-.742,1.9a1.569,1.569,0,0,1-1.529,1l-3.308-.134a1.543,1.543,0,0,1-.186-.019A1.575,1.575,0,0,1,2377.327,1628.079Zm2.581-.772v0Zm2.459-3.212.73-.14a10.645,10.645,0,0,0,3.241-1.189l.647-.366,2.375,1.28,1.256-1.157-1.082-2.472.417-.614a10.649,10.649,0,0,0,1.449-3.134l.2-.717,2.586-.775.069-1.706-2.514-.982-.14-.731a10.654,10.654,0,0,0-1.188-3.242l-.366-.647,1.279-2.375-1.156-1.255-2.472,1.082-.615-.417a10.607,10.607,0,0,0-3.133-1.449l-.717-.2-.775-2.587-1.706-.069-.983,2.514-.73.14a10.651,10.651,0,0,0-3.241,1.189l-.647.366-2.375-1.28-1.255,1.157,1.082,2.472-.418.616a10.647,10.647,0,0,0-1.448,3.133l-.2.717-2.586.775-.069,1.707,2.515.982.14.731a10.654,10.654,0,0,0,1.189,3.241l.366.647-1.279,2.375,1.156,1.256,2.471-1.082.615.417a10.668,10.668,0,0,0,3.134,1.449l.716.2.775,2.586,1.706.069Zm-.189,2.547h0Zm7.888-2.582,0,0Zm.87-.805v0Zm.264-1.271.008-.008Zm3.746-7.4.008,0Zm-23.749-10.991v0Zm1.5-1.994.009,0Zm18.185,1.962.016-.007Zm-7.64-3.224h0Zm-8.962,19.412a9.31,9.31,0,0,1-2.272-4.416,1.347,1.347,0,0,1,2.638-.547,6.616,6.616,0,1,0,1.066-5.166,1.347,1.347,0,0,1-2.2-1.552,9.44,9.44,0,0,1,1.309-1.491,9.322,9.322,0,1,1,5.938,16.169,9.4,9.4,0,0,1-1.159-.119A9.247,9.247,0,0,1,2374.281,1619.748Z" transform="translate(-2365.153 -1597.508)" fill="#fff"/>
        </g>
      </g>
    </g>
  </g>
</svg>
