<svg xmlns="http://www.w3.org/2000/svg" width="690" height="539.02" viewBox="0 0 690 539.02">
  <g id="Contact" transform="translate(-16.63 -79.295)">
    <g id="Background_Complete" data-name="Background Complete" transform="translate(52.294 92.758)">
      <g id="Group_4071" data-name="Group 4071">
        <g id="Group_3994" data-name="Group 3994">
          <g id="Group_3990" data-name="Group 3990" transform="translate(0.689 0.688)">
            <g id="Group_3989" data-name="Group 3989">
              <rect id="Rectangle_371" data-name="Rectangle 371" width="257.357" height="230.247" fill="#ff889b"/>
            </g>
          </g>
          <g id="Group_3993" data-name="Group 3993">
            <g id="Group_3992" data-name="Group 3992">
              <g id="Group_3991" data-name="Group 3991">
                <path id="Path_1250" data-name="Path 1250" d="M298.732,319.312s-.043-1.477-.065-4.274c-.015-2.826-.037-6.956-.067-12.336-.036-10.811-.086-26.612-.151-46.737-.073-40.231-.176-97.715-.3-166.9l.584.583-257.334.1h-.022l.686-.686c-.03,83.766-.058,162.59-.082,230.245l-.6-.6,186.139.305,52.5.16,13.9.071,3.585.034c.806.012,1.235.036,1.235.036s-.381.022-1.167.034l-3.518.034-13.78.071-52.364.16c-45.2.073-109.593.179-186.527.305l-.606,0v-.608c-.024-67.655-.052-146.479-.083-230.245v-.689H41.4l257.334.105h.584v.584c-.125,69.337-.228,126.948-.3,167.267-.065,20.069-.116,35.827-.151,46.606-.03,5.333-.052,9.426-.067,12.225C298.775,317.921,298.732,319.312,298.732,319.312Z" transform="translate(-40.686 -88.376)" fill="#e0e0e0"/>
              </g>
            </g>
          </g>
        </g>
        <g id="Group_3997" data-name="Group 3997" transform="translate(38.861 40.911)">
          <g id="Group_3996" data-name="Group 3996">
            <g id="Group_3995" data-name="Group 3995">
              <path id="Path_1251" data-name="Path 1251" d="M127.405,116.659c0,.38-13.546.688-30.251.688s-30.256-.308-30.256-.688,13.543-.688,30.256-.688S127.405,116.279,127.405,116.659Z" transform="translate(-66.898 -115.971)" fill="#fff"/>
            </g>
          </g>
        </g>
        <g id="Group_4000" data-name="Group 4000" transform="translate(42.186 58.199)">
          <g id="Group_3999" data-name="Group 3999">
            <g id="Group_3998" data-name="Group 3998">
              <path id="Path_1252" data-name="Path 1252" d="M235.369,128.32c0,.38-37.214.686-83.11.686s-83.118-.307-83.118-.686,37.206-.688,83.118-.688S235.369,127.94,235.369,128.32Z" transform="translate(-69.141 -127.632)" fill="#fff"/>
            </g>
          </g>
        </g>
        <g id="Group_4002" data-name="Group 4002" transform="translate(39.304 88.171)">
          <g id="Group_4001" data-name="Group 4001">
            <rect id="Rectangle_372" data-name="Rectangle 372" width="10.843" height="10.842" fill="#fff"/>
          </g>
        </g>
        <g id="Group_4004" data-name="Group 4004" transform="translate(65.994 88.171)">
          <g id="Group_4003" data-name="Group 4003">
            <rect id="Rectangle_373" data-name="Rectangle 373" width="10.842" height="10.842" fill="#fff"/>
          </g>
        </g>
        <g id="Group_4006" data-name="Group 4006" transform="translate(93.175 87.678)">
          <g id="Group_4005" data-name="Group 4005" transform="translate(0)">
            <rect id="Rectangle_374" data-name="Rectangle 374" width="10.842" height="10.842" fill="#fff"/>
          </g>
        </g>
        <g id="Group_4008" data-name="Group 4008" transform="translate(119.372 88.171)">
          <g id="Group_4007" data-name="Group 4007">
            <rect id="Rectangle_375" data-name="Rectangle 375" width="10.842" height="10.842" fill="#fff"/>
          </g>
        </g>
        <g id="Group_4010" data-name="Group 4010" transform="translate(146.061 88.171)">
          <g id="Group_4009" data-name="Group 4009">
            <rect id="Rectangle_376" data-name="Rectangle 376" width="10.842" height="10.842" fill="#fff"/>
          </g>
        </g>
        <g id="Group_4012" data-name="Group 4012" transform="translate(172.75 88.171)">
          <g id="Group_4011" data-name="Group 4011">
            <rect id="Rectangle_377" data-name="Rectangle 377" width="10.842" height="10.842" fill="#fff"/>
          </g>
        </g>
        <g id="Group_4014" data-name="Group 4014" transform="translate(199.439 88.171)">
          <g id="Group_4013" data-name="Group 4013">
            <rect id="Rectangle_378" data-name="Rectangle 378" width="10.842" height="10.842" fill="#fff"/>
          </g>
        </g>
        <g id="Group_4016" data-name="Group 4016" transform="translate(39.304 111.221)">
          <g id="Group_4015" data-name="Group 4015">
            <rect id="Rectangle_379" data-name="Rectangle 379" width="10.843" height="10.842" fill="#fff"/>
          </g>
        </g>
        <g id="Group_4018" data-name="Group 4018" transform="translate(65.994 111.221)">
          <g id="Group_4017" data-name="Group 4017">
            <rect id="Rectangle_380" data-name="Rectangle 380" width="10.842" height="10.842" fill="#fff"/>
          </g>
        </g>
        <g id="Group_4020" data-name="Group 4020" transform="translate(92.682 111.221)">
          <g id="Group_4019" data-name="Group 4019" transform="translate(0)">
            <rect id="Rectangle_381" data-name="Rectangle 381" width="10.843" height="10.842" fill="#fff"/>
          </g>
        </g>
        <g id="Group_4022" data-name="Group 4022" transform="translate(119.372 111.221)">
          <g id="Group_4021" data-name="Group 4021">
            <rect id="Rectangle_382" data-name="Rectangle 382" width="10.842" height="10.842" fill="#fff"/>
          </g>
        </g>
        <g id="Group_4024" data-name="Group 4024" transform="translate(146.061 111.221)">
          <g id="Group_4023" data-name="Group 4023">
            <rect id="Rectangle_383" data-name="Rectangle 383" width="10.842" height="10.842" fill="#fff"/>
          </g>
        </g>
        <g id="Group_4026" data-name="Group 4026" transform="translate(173.242 110.729)">
          <g id="Group_4025" data-name="Group 4025">
            <rect id="Rectangle_384" data-name="Rectangle 384" width="10.842" height="10.842" fill="#fff"/>
          </g>
        </g>
        <g id="Group_4028" data-name="Group 4028" transform="translate(199.439 111.221)">
          <g id="Group_4027" data-name="Group 4027">
            <rect id="Rectangle_385" data-name="Rectangle 385" width="10.842" height="10.842" fill="#fff"/>
          </g>
        </g>
        <g id="Group_4030" data-name="Group 4030" transform="translate(39.304 134.271)">
          <g id="Group_4029" data-name="Group 4029">
            <rect id="Rectangle_386" data-name="Rectangle 386" width="10.843" height="10.842" fill="#fff"/>
          </g>
        </g>
        <g id="Group_4032" data-name="Group 4032" transform="translate(66.486 133.779)">
          <g id="Group_4031" data-name="Group 4031">
            <rect id="Rectangle_387" data-name="Rectangle 387" width="10.842" height="10.842" fill="#fff"/>
          </g>
        </g>
        <g id="Group_4034" data-name="Group 4034" transform="translate(92.682 134.271)">
          <g id="Group_4033" data-name="Group 4033" transform="translate(0)">
            <rect id="Rectangle_388" data-name="Rectangle 388" width="10.843" height="10.842" fill="#fff"/>
          </g>
        </g>
        <g id="Group_4036" data-name="Group 4036" transform="translate(119.372 134.271)">
          <g id="Group_4035" data-name="Group 4035">
            <rect id="Rectangle_389" data-name="Rectangle 389" width="10.842" height="10.842" fill="#fff"/>
          </g>
        </g>
        <g id="Group_4038" data-name="Group 4038" transform="translate(146.061 134.271)">
          <g id="Group_4037" data-name="Group 4037">
            <rect id="Rectangle_390" data-name="Rectangle 390" width="10.842" height="10.842" fill="#fff"/>
          </g>
        </g>
        <g id="Group_4040" data-name="Group 4040" transform="translate(172.75 134.271)">
          <g id="Group_4039" data-name="Group 4039">
            <rect id="Rectangle_391" data-name="Rectangle 391" width="10.842" height="10.842" fill="#fff"/>
          </g>
        </g>
        <g id="Group_4042" data-name="Group 4042" transform="translate(199.439 134.271)">
          <g id="Group_4041" data-name="Group 4041">
            <rect id="Rectangle_392" data-name="Rectangle 392" width="10.842" height="10.842" fill="#fff"/>
          </g>
        </g>
        <g id="Group_4044" data-name="Group 4044" transform="translate(39.304 157.321)">
          <g id="Group_4043" data-name="Group 4043">
            <rect id="Rectangle_393" data-name="Rectangle 393" width="10.843" height="10.843" fill="#fff"/>
          </g>
        </g>
        <g id="Group_4046" data-name="Group 4046" transform="translate(65.994 157.321)">
          <g id="Group_4045" data-name="Group 4045">
            <rect id="Rectangle_394" data-name="Rectangle 394" width="10.842" height="10.843" fill="#fff"/>
          </g>
        </g>
        <g id="Group_4048" data-name="Group 4048" transform="translate(92.682 157.321)">
          <g id="Group_4047" data-name="Group 4047" transform="translate(0)">
            <rect id="Rectangle_395" data-name="Rectangle 395" width="10.843" height="10.843" fill="#fff"/>
          </g>
        </g>
        <g id="Group_4050" data-name="Group 4050" transform="translate(119.864 156.829)">
          <g id="Group_4049" data-name="Group 4049">
            <rect id="Rectangle_396" data-name="Rectangle 396" width="10.842" height="10.842" fill="#fff"/>
          </g>
        </g>
        <g id="Group_4052" data-name="Group 4052" transform="translate(146.061 157.321)">
          <g id="Group_4051" data-name="Group 4051">
            <rect id="Rectangle_397" data-name="Rectangle 397" width="10.842" height="10.843" fill="#fff"/>
          </g>
        </g>
        <g id="Group_4054" data-name="Group 4054" transform="translate(172.75 157.321)">
          <g id="Group_4053" data-name="Group 4053">
            <rect id="Rectangle_398" data-name="Rectangle 398" width="10.842" height="10.843" fill="#fff"/>
          </g>
        </g>
        <g id="Group_4056" data-name="Group 4056" transform="translate(199.439 157.321)">
          <g id="Group_4055" data-name="Group 4055">
            <rect id="Rectangle_399" data-name="Rectangle 399" width="10.842" height="10.843" fill="#fff"/>
          </g>
        </g>
        <g id="Group_4058" data-name="Group 4058" transform="translate(39.304 180.372)">
          <g id="Group_4057" data-name="Group 4057">
            <rect id="Rectangle_400" data-name="Rectangle 400" width="10.843" height="10.842" fill="#fff"/>
          </g>
        </g>
        <g id="Group_4060" data-name="Group 4060" transform="translate(65.994 180.372)">
          <g id="Group_4059" data-name="Group 4059">
            <rect id="Rectangle_401" data-name="Rectangle 401" width="10.842" height="10.842" fill="#fff"/>
          </g>
        </g>
        <g id="Group_4062" data-name="Group 4062" transform="translate(92.682 180.372)">
          <g id="Group_4061" data-name="Group 4061" transform="translate(0)">
            <rect id="Rectangle_402" data-name="Rectangle 402" width="10.843" height="10.842" fill="#fff"/>
          </g>
        </g>
        <g id="Group_4064" data-name="Group 4064" transform="translate(119.372 180.372)">
          <g id="Group_4063" data-name="Group 4063">
            <rect id="Rectangle_403" data-name="Rectangle 403" width="10.842" height="10.842" fill="#fff"/>
          </g>
        </g>
        <g id="Group_4066" data-name="Group 4066" transform="translate(146.061 180.372)">
          <g id="Group_4065" data-name="Group 4065">
            <rect id="Rectangle_404" data-name="Rectangle 404" width="10.842" height="10.842" fill="#fff"/>
          </g>
        </g>
        <g id="Group_4068" data-name="Group 4068" transform="translate(173.242 179.88)">
          <g id="Group_4067" data-name="Group 4067">
            <rect id="Rectangle_405" data-name="Rectangle 405" width="10.842" height="10.842" fill="#e0e0e0"/>
          </g>
        </g>
        <g id="Group_4070" data-name="Group 4070" transform="translate(199.439 180.372)">
          <g id="Group_4069" data-name="Group 4069">
            <rect id="Rectangle_406" data-name="Rectangle 406" width="10.842" height="10.842" fill="#e0e0e0"/>
          </g>
        </g>
      </g>
    </g>
    <g id="Plant" transform="translate(16.63 365.318)">
      <g id="Group_4220" data-name="Group 4220">
        <g id="Group_4195" data-name="Group 4195">
          <g id="Group_4176" data-name="Group 4176" transform="translate(76.139 100.867)">
            <g id="Group_4175" data-name="Group 4175">
              <g id="Group_4174" data-name="Group 4174">
                <path id="Path_1261" data-name="Path 1261" d="M77.29,344.076c7.76-4,16.9-4.523,25.509-3.1,4.627.765,9.451,2.15,12.6,5.626s3.746,9.592.13,12.579c-2.153,1.778-5.153,2.047-7.945,2.015-6.743-.079-14.225-1.265-19.611,2.792-3.075,2.316-5.119,6.163-8.795,7.3-3.6,1.113-7.651-1.008-9.558-4.253s-1.97-7.3-1.081-10.956A16.729,16.729,0,0,1,77.29,344.076Z" transform="translate(-67.987 -340.257)" fill="#aa80f9"/>
              </g>
            </g>
          </g>
          <g id="Group_4179" data-name="Group 4179" transform="translate(63.187)">
            <g id="Group_4178" data-name="Group 4178">
              <g id="Group_4177" data-name="Group 4177">
                <path id="Path_1262" data-name="Path 1262" d="M63.731,342.593c4.744,6.775,13.964,4.532,18.24.4s6.083-10.13,7.727-15.847c3.758-13.06,7.548-26.762,4.753-40.061-.835-3.976-2.322-7.942-5.116-10.892s-7.091-4.706-11.02-3.666c-4.648,1.228-7.537,5.78-9.626,10.112a95.514,95.514,0,0,0-9.438,40.984c-.022,6.6.756,13.525,4.48,18.975" transform="translate(-59.251 -272.221)" fill="#aa80f9"/>
              </g>
            </g>
          </g>
          <g id="Group_4182" data-name="Group 4182" transform="translate(0 21.803)">
            <g id="Group_4181" data-name="Group 4181">
              <g id="Group_4180" data-name="Group 4180">
                <path id="Path_1263" data-name="Path 1263" d="M71.269,345.219c5.152-6.114,6.129-15.03,3.837-22.689s-7.471-14.175-13.438-19.494a72.369,72.369,0,0,0-24.065-14.2c-3.48-1.223-7.15-2.188-10.823-1.838s-7.37,2.228-9.082,5.494c-2.532,4.83-.1,10.689,2.522,15.469a183.362,183.362,0,0,0,15.805,24.068c4.738,6.108,10.164,12.133,17.384,14.894s14.72,2.434,18.547-2.572" transform="translate(-16.63 -286.927)" fill="#aa80f9"/>
              </g>
            </g>
          </g>
          <g id="Group_4186" data-name="Group 4186" transform="translate(67.259 110.276)">
            <g id="Group_4185" data-name="Group 4185">
              <g id="Group_4184" data-name="Group 4184">
                <g id="Group_4183" data-name="Group 4183">
                  <path id="Path_1264" data-name="Path 1264" d="M62.084,408.913a14.78,14.78,0,0,0,.43-3.078c.218-2.242.491-5.055.817-8.4a121.611,121.611,0,0,1,1.89-12.326,95.141,95.141,0,0,1,4.48-14.547A53.671,53.671,0,0,1,77.129,357.4a27.748,27.748,0,0,1,9.392-7.807,26.264,26.264,0,0,1,7.908-2.462,14.948,14.948,0,0,0,3.066-.443,14.314,14.314,0,0,0-3.119-.049,23.961,23.961,0,0,0-8.247,2.147,27.682,27.682,0,0,0-9.906,7.875,52.362,52.362,0,0,0-7.7,13.426,89.043,89.043,0,0,0-4.449,14.785,104.376,104.376,0,0,0-1.638,12.48c-.267,3.569-.368,6.458-.417,8.455A14.457,14.457,0,0,0,62.084,408.913Z" transform="translate(-61.997 -346.604)" fill="#9662f8"/>
                </g>
              </g>
            </g>
          </g>
          <g id="Group_4190" data-name="Group 4190" transform="translate(67.259 27.225)">
            <g id="Group_4189" data-name="Group 4189">
              <g id="Group_4188" data-name="Group 4188">
                <g id="Group_4187" data-name="Group 4187">
                  <path id="Path_1265" data-name="Path 1265" d="M62.664,429.479a6.1,6.1,0,0,0,.082-1.429c0-1.073-.006-2.425-.01-4.086-.01-3.545-.007-8.676.182-15.011.313-12.671,1.4-26.309,3.512-45.537,2-18.08,4.674-39.12,7.5-52.8.606-3.11,1.217-5.911,1.791-8.362.549-2.457,1.017-4.575,1.468-6.29.388-1.613.7-2.928.955-3.97a6.175,6.175,0,0,0,.251-1.41,5.974,5.974,0,0,0-.5,1.34l-1.186,3.914c-.526,1.7-1.066,3.8-1.681,6.25-.642,2.442-1.315,5.235-1.979,8.341a464.158,464.158,0,0,0-7.886,48.992c-2.111,19.267-3.061,36.81-3.146,49.513-.076,6.353.059,11.494.221,15.042.1,1.659.184,3.01.251,4.083A5.979,5.979,0,0,0,62.664,429.479Z" transform="translate(-61.997 -290.585)" fill="#9662f8"/>
                </g>
              </g>
            </g>
          </g>
          <g id="Group_4194" data-name="Group 4194" transform="translate(22.748 37.571)">
            <g id="Group_4193" data-name="Group 4193">
              <g id="Group_4192" data-name="Group 4192">
                <g id="Group_4191" data-name="Group 4191">
                  <path id="Path_1266" data-name="Path 1266" d="M77.236,392.277a27.342,27.342,0,0,0-.03-4.268c-.157-2.743-.535-6.707-1.308-11.562a152.53,152.53,0,0,0-3.76-16.846,138.306,138.306,0,0,0-7.045-19.934c-5.843-13.86-13.782-25.193-20.688-32.213a52.507,52.507,0,0,0-4.867-4.523c-.747-.632-1.407-1.262-2.079-1.76q-1.014-.7-1.889-1.3a27.1,27.1,0,0,0-3.592-2.3c-.2.277,5.09,3.394,11.776,10.507,6.66,7.1,14.376,18.353,20.172,32.1a157.448,157.448,0,0,1,7.085,19.751,171.3,171.3,0,0,1,4,16.679c.881,4.806,1.392,8.731,1.7,11.448A27.466,27.466,0,0,0,77.236,392.277Z" transform="translate(-31.974 -297.563)" fill="#9662f8"/>
                </g>
              </g>
            </g>
          </g>
        </g>
        <g id="Group_4198" data-name="Group 4198" transform="translate(35.306 191.971)">
          <g id="Group_4197" data-name="Group 4197">
            <g id="Group_4196" data-name="Group 4196">
              <path id="Path_1267" data-name="Path 1267" d="M40.445,401.708l3.39,46.449h59.672l3.391-46.449Z" transform="translate(-40.445 -401.708)" fill="#9662f8"/>
            </g>
          </g>
        </g>
        <g id="Group_4201" data-name="Group 4201" transform="translate(29.542 173.662)">
          <g id="Group_4200" data-name="Group 4200">
            <g id="Group_4199" data-name="Group 4199">
              <rect id="Rectangle_419" data-name="Rectangle 419" width="79.337" height="18.308" fill="#9662f8"/>
            </g>
          </g>
        </g>
        <g id="Group_4204" data-name="Group 4204" transform="translate(29.542 236.642)">
          <g id="Group_4203" data-name="Group 4203">
            <g id="Group_4202" data-name="Group 4202">
              <path id="Path_1268" data-name="Path 1268" d="M36.557,431.839v5.075h78.025v-5.075Z" transform="translate(-36.557 -431.839)" fill="#5252a3"/>
            </g>
          </g>
        </g>
        <g id="Group_4207" data-name="Group 4207" transform="translate(33.27 241.718)">
          <g id="Group_4206" data-name="Group 4206">
            <g id="Group_4205" data-name="Group 4205">
              <path id="Path_1269" data-name="Path 1269" d="M42.725,444.194l-3.654-8.932h71.456l-4.263,8.932Z" transform="translate(-39.071 -435.262)" fill="#5252a3"/>
            </g>
          </g>
        </g>
        <g id="Group_4211" data-name="Group 4211" transform="translate(36.311 200.627)">
          <g id="Group_4210" data-name="Group 4210">
            <g id="Group_4209" data-name="Group 4209">
              <g id="Group_4208" data-name="Group 4208">
                <path id="Path_1270" data-name="Path 1270" d="M105.461,414.071a1.806,1.806,0,0,1-.277.427l-.892,1.183-3.475,4.448-.156.2-.148-.208-8.541-11.811h.492c-2.541,3.6-5.37,7.6-8.409,11.906l-.264.372-.3-.351-9.972-11.863.575-.007-.549.689-8.916,11.178-.3.372-.274-.388c-3.026-4.283-5.855-8.284-8.412-11.9l.489.024c-4.145,4.723-7.662,8.729-10.36,11.8l-.184.211-.141-.236c-1.365-2.295-2.454-4.124-3.244-5.45l-.832-1.451a2.393,2.393,0,0,1-.255-.517,2.221,2.221,0,0,1,.348.46c.242.368.546.827.921,1.4L45.8,419.9l-.325-.027L55.668,407.93l.258-.3.233.325L64.645,419.8l-.571-.015,8.9-11.195.549-.689.283-.356.292.348c3.49,4.17,6.849,8.188,9.945,11.887l-.559.022,8.492-11.846.249-.347.243.347c3.364,4.8,6.221,8.885,8.359,11.94l-.3-.01,3.616-4.335c.393-.454.71-.823.968-1.121A1.963,1.963,0,0,1,105.461,414.071Z" transform="translate(-41.123 -407.546)" fill="#fff"/>
              </g>
            </g>
          </g>
        </g>
        <g id="Group_4215" data-name="Group 4215" transform="translate(35.803 191.292)">
          <g id="Group_4214" data-name="Group 4214">
            <g id="Group_4213" data-name="Group 4213">
              <g id="Group_4212" data-name="Group 4212">
                <path id="Path_1271" data-name="Path 1271" d="M107.566,401.622c0,.2-14.952.371-33.392.371s-33.394-.166-33.394-.371,14.949-.372,33.394-.372S107.566,401.418,107.566,401.622Z" transform="translate(-40.78 -401.25)" fill="#fff"/>
              </g>
            </g>
          </g>
        </g>
        <g id="Group_4219" data-name="Group 4219" transform="translate(33.02 241.846)">
          <g id="Group_4218" data-name="Group 4218">
            <g id="Group_4217" data-name="Group 4217">
              <g id="Group_4216" data-name="Group 4216">
                <path id="Path_1272" data-name="Path 1272" d="M111.486,435.721c0,.2-16.249.371-36.29.371s-36.293-.166-36.293-.371,16.246-.372,36.293-.372S111.486,435.517,111.486,435.721Z" transform="translate(-38.903 -435.349)" fill="#fff"/>
              </g>
            </g>
          </g>
        </g>
      </g>
    </g>
    <g id="Chair" transform="translate(507.861 420.01)">
      <g id="Group_4222" data-name="Group 4222">
        <path id="Rectangle_420" data-name="Rectangle 420" d="M15.126,0H168.381a15.126,15.126,0,0,1,15.126,15.126V196.8a0,0,0,0,1,0,0H0a0,0,0,0,1,0,0V15.126A15.126,15.126,0,0,1,15.126,0Z" fill="#ff4a67"/>
        <g id="Group_4221" data-name="Group 4221" transform="translate(167.693 1.003)">
          <path id="Path_1273" data-name="Path 1273" d="M461.468,309.788c.214,0,.385,43.812.385,97.844,0,54.051-.172,97.853-.385,97.853s-.385-43.8-.385-97.853C461.083,353.6,461.255,309.788,461.468,309.788Z" transform="translate(-461.083 -309.788)" fill="#fff"/>
        </g>
      </g>
    </g>
    <g id="Character" transform="translate(285.957 171.64)">
      <g id="Group_4412" data-name="Group 4412" transform="translate(0 0)">
        <g id="Group_4224" data-name="Group 4224" transform="translate(246.913 23.462)">
          <path id="Path_1274" data-name="Path 1274" d="M417.506,168.666A155.635,155.635,0,0,1,445.4,250.705c.863,19.719-1.792,40.733,7.567,58.11,13.425,24.931,42.474,24.084,51.367,50.967,3.868,11.69-3.263,37.423-5.186,49.585-2.185,13.826,6.271,25.436,4.087,39.262-2,12.673-11.487,21.719-22.88,27.62-10.135,5.25-19.506,5.389-30.051,1.024-20.093-8.319-36.816-17.1-51.133-33.469-20.1-22.981-26.169-54.8-29.6-85.137a747.228,747.228,0,0,1,4.55-201.261" transform="translate(-364.841 -157.408)" fill="#263238"/>
          <g id="Group_4223" data-name="Group 4223" transform="translate(58.725 101.367)">
            <path id="Path_1275" data-name="Path 1275" d="M441.362,447.107s.218-.068.648-.162,1.076-.2,1.9-.451a31.474,31.474,0,0,0,6.943-2.775,30.8,30.8,0,0,0,9.17-7.353,19.269,19.269,0,0,0,3.585-6.357,34.776,34.776,0,0,0,1.253-8.147c.286-5.812-.6-12.17-1.92-18.892-1.293-6.726-3.047-13.908-3.469-21.679a44.685,44.685,0,0,1,.839-11.887,77.568,77.568,0,0,1,3.769-11.829c1.509-3.924,3.1-7.889,4.247-12.044a30.89,30.89,0,0,0,1.027-12.9,29.168,29.168,0,0,0-4.811-11.983,55.685,55.685,0,0,0-8.406-9.525c-6.126-5.717-12.756-10.437-18.418-15.739a104.263,104.263,0,0,1-23.986-33.116,101.428,101.428,0,0,1-5.523-14.786c-.712-2.215-1.118-4.345-1.626-6.27-.381-1.95-.731-3.735-1.045-5.343-.471-3.238-.815-5.752-.909-7.474-.065-.83-.114-1.477-.151-1.951-.03-.439-.025-.666-.025-.666s.047.222.1.66c.055.471.13,1.116.227,1.942.144,1.714.535,4.218,1.051,7.438q.5,2.4,1.107,5.312c.528,1.912.952,4.03,1.681,6.23a103.042,103.042,0,0,0,5.6,14.677A104.525,104.525,0,0,0,438.2,294.861c5.632,5.25,12.273,9.96,18.452,15.711a56.259,56.259,0,0,1,8.529,9.65,29.888,29.888,0,0,1,4.937,12.3,31.618,31.618,0,0,1-1.05,13.211c-1.17,4.213-2.772,8.2-4.282,12.114a77.145,77.145,0,0,0-3.755,11.711,44.07,44.07,0,0,0-.849,11.7c.4,7.683,2.117,14.846,3.388,21.595,1.3,6.743,2.161,13.159,1.837,19.039a35.031,35.031,0,0,1-1.331,8.273,19.671,19.671,0,0,1-3.72,6.48,30.753,30.753,0,0,1-9.362,7.343,29.847,29.847,0,0,1-7.045,2.66A17.7,17.7,0,0,1,441.362,447.107Z" transform="translate(-404.452 -225.781)" fill="#455a64"/>
          </g>
        </g>
        <g id="Group_4258" data-name="Group 4258" transform="translate(0 165.498)">
          <g id="Group_4245" data-name="Group 4245" transform="translate(0 36.371)">
            <g id="Group_4243" data-name="Group 4243">
              <path id="Path_1276" data-name="Path 1276" d="M243.164,475.007l71.145-33.79s27.707-134.534,32.947-144.638,27.14-18.833,27.14-18.833l-3.669,182.176-6.5,42.023L263.89,511.451Z" transform="translate(-176.643 -277.746)" fill="#aa80f9"/>
              <g id="Group_4241" data-name="Group 4241" transform="translate(0 184.211)">
                <g id="Group_4225" data-name="Group 4225" transform="translate(4.431 44.92)">
                  <path id="Path_1277" data-name="Path 1277" d="M202.65,432.3c-.391-.015-2.372,1.225-.713,4.347s13.7,13.456,17.249,9.857-1.869-7.989-1.869-7.989Z" transform="translate(-201.284 -432.298)" fill="#ffbe9d"/>
                </g>
                <g id="Group_4228" data-name="Group 4228" transform="translate(0 10.275)">
                  <g id="Group_4227" data-name="Group 4227">
                    <g id="Group_4226" data-name="Group 4226">
                      <path id="Path_1278" data-name="Path 1278" d="M219.27,449.929s14.547,1.835,20.151,3.964c6.083,2.311,13.491.735,18.477-2.643a52.6,52.6,0,0,0,7.893-6.431l18.56-.292a22.277,22.277,0,0,0,3.62-23,24.838,24.838,0,0,0-4.252-7.244c-2.2-2.384-5.686-4.317-11.7-5.357l-22.05,4.762s-34.162-2.442-40.233.43c0,0-7.632,4.526-10,6.425-.89.715-3.6,9.408,1.961,13.927,0,0-4.838,3.847-2.218,7.3l1.256,1.531s-3.253,4.21-1.583,6.043,16.287,10.4,21.515,8.357.9-6.886-1.4-7.773" transform="translate(-198.295 -408.929)" fill="#ffbe9d"/>
                    </g>
                  </g>
                </g>
                <g id="Group_4230" data-name="Group 4230" transform="translate(3.325 28.304)">
                  <g id="Group_4229" data-name="Group 4229">
                    <path id="Path_1279" data-name="Path 1279" d="M204.274,421.094a13.328,13.328,0,0,1,1.809.645c1.152.439,2.823,1.061,4.921,1.729,1.048.334,2.2.675,3.456,1s2.606.608,4.019,1.067a8.613,8.613,0,0,1,4.006,2.415,4.944,4.944,0,0,1,1.07,4.879,3.853,3.853,0,0,1-1.8,1.939,6.782,6.782,0,0,1-2.43.678,20.15,20.15,0,0,1-4.636-.246,40.953,40.953,0,0,1-7.539-1.964c-2.089-.738-3.736-1.437-4.872-1.921a11.092,11.092,0,0,1-1.736-.823,12.4,12.4,0,0,1,1.824.6c1.161.417,2.83,1.053,4.924,1.735a43.637,43.637,0,0,0,7.479,1.818,20.1,20.1,0,0,0,4.492.208,6.225,6.225,0,0,0,2.211-.62,3.252,3.252,0,0,0,1.526-1.635,4.38,4.38,0,0,0-.964-4.267,8.162,8.162,0,0,0-3.727-2.267c-1.361-.46-2.723-.747-3.976-1.112s-2.411-.721-3.457-1.082c-2.093-.723-3.748-1.411-4.876-1.918A10.194,10.194,0,0,1,204.274,421.094Z" transform="translate(-200.538 -421.09)" fill="#eb996e"/>
                  </g>
                </g>
                <g id="Group_4232" data-name="Group 4232" transform="translate(5.063 17.786)">
                  <g id="Group_4231" data-name="Group 4231">
                    <path id="Path_1280" data-name="Path 1280" d="M205.018,414a13.2,13.2,0,0,1,1.8.652c1.146.442,2.8,1.078,4.887,1.772s4.581,1.447,7.4,2.122a10.139,10.139,0,0,1,4.314,1.747,3.676,3.676,0,0,1,1.266,2.231,4.653,4.653,0,0,1-.377,2.594,6.248,6.248,0,0,1-3.807,3.241,10.074,10.074,0,0,1-4.637.368,44.673,44.673,0,0,1-7.457-2.159l-4.916-1.721a11.488,11.488,0,0,1-1.776-.71,11.616,11.616,0,0,1,1.85.486c1.276.393,2.952.912,4.977,1.537a48.213,48.213,0,0,0,7.393,2.012,9.6,9.6,0,0,0,4.374-.375,5.687,5.687,0,0,0,3.444-2.924,3.435,3.435,0,0,0-.725-4.133,9.8,9.8,0,0,0-4.056-1.65,76.3,76.3,0,0,1-7.407-2.261c-2.074-.749-3.715-1.448-4.838-1.958A10.316,10.316,0,0,1,205.018,414Z" transform="translate(-201.71 -413.995)" fill="#eb996e"/>
                  </g>
                </g>
                <g id="Group_4234" data-name="Group 4234" transform="translate(13.953 14.963)">
                  <g id="Group_4233" data-name="Group 4233">
                    <path id="Path_1281" data-name="Path 1281" d="M209.135,417.923a107.21,107.21,0,0,0-1.4-5.828,7.245,7.245,0,0,1,1.4,5.828Z" transform="translate(-207.706 -412.091)" fill="#eb996e"/>
                  </g>
                </g>
                <g id="Group_4238" data-name="Group 4238" transform="translate(14.636)">
                  <g id="Group_4235" data-name="Group 4235" transform="translate(0.299 0.3)">
                    <path id="Path_1282" data-name="Path 1282" d="M260.153,423.132l-12.969-5s-36.013-16.806-36.621-15.9-2.562.811-2.135,5.2,21.414,13.242,22.078,14.765-.443,9.211,7.307,14.72,13.343,5.628,13.343,5.628" transform="translate(-208.368 -402.201)" fill="#ffbe9d"/>
                  </g>
                  <g id="Group_4237" data-name="Group 4237">
                    <g id="Group_4236" data-name="Group 4236">
                      <path id="Path_1283" data-name="Path 1283" d="M251.255,442.649a.97.97,0,0,1-.307.01,8.745,8.745,0,0,1-.9-.089,20.064,20.064,0,0,1-3.368-.808,32.566,32.566,0,0,1-11-6.329,15.6,15.6,0,0,1-4.421-7.58,35.2,35.2,0,0,1-.766-4.844,2.716,2.716,0,0,0-.128-.556,1.046,1.046,0,0,0-.34-.347,11.794,11.794,0,0,0-1.053-.682c-.737-.434-1.5-.849-2.285-1.268-3.124-1.664-6.448-3.346-9.8-5.273-1.677-.964-3.362-1.987-5-3.153a19.026,19.026,0,0,1-2.347-1.958,6.468,6.468,0,0,1-.989-1.251,2.741,2.741,0,0,1-.3-.808,6.462,6.462,0,0,1-.077-.8,5.719,5.719,0,0,1,.556-3.134,3.718,3.718,0,0,1,1.145-1.146,2.233,2.233,0,0,0,.5-.43.64.64,0,0,1,.125-.125.4.4,0,0,1,.255-.08,1.2,1.2,0,0,1,.254.019c.138.027.268.058.393.093,1.951.6,3.736,1.386,5.528,2.122,3.558,1.5,6.959,3.017,10.194,4.47,6.465,2.912,12.258,5.6,17.113,7.877,1.216.557,2.365,1.14,3.463,1.606l3.173,1.247,5.076,2.012,3.2,1.294.826.351a1.172,1.172,0,0,1,.274.138,1.159,1.159,0,0,1-.3-.08l-.848-.3-3.244-1.189-5.119-1.917q-1.5-.567-3.193-1.205c-1.128-.464-2.267-1.024-3.493-1.571-4.9-2.215-10.711-4.84-17.161-7.757-3.239-1.438-6.642-2.941-10.2-4.431-1.775-.727-3.6-1.518-5.456-2.087-.116-.034-.228-.059-.335-.08a.873.873,0,0,0-.117-.012c-.007-.021,0,.044-.019-.048-.04-.113.007-.1-.024-.148a.105.105,0,0,0-.042-.043c.408.276.1.089.19.157l-.037.046a2.706,2.706,0,0,1-.626.557,3.1,3.1,0,0,0-.977.967,5.154,5.154,0,0,0-.471,2.793,2.681,2.681,0,0,0,.3,1.339,5.861,5.861,0,0,0,.894,1.124,18.531,18.531,0,0,0,2.267,1.893c1.606,1.148,3.278,2.166,4.943,3.127,3.333,1.924,6.645,3.614,9.77,5.3.78.422,1.551.843,2.3,1.29a12.751,12.751,0,0,1,1.1.722,1.5,1.5,0,0,1,.508.575,3.151,3.151,0,0,1,.157.673,35.318,35.318,0,0,0,.726,4.8,15.222,15.222,0,0,0,4.231,7.4,29.868,29.868,0,0,0,5.837,4.153,30.933,30.933,0,0,0,4.938,2.261,23.214,23.214,0,0,0,3.312.912c.385.076.683.117.882.147A1.445,1.445,0,0,1,251.255,442.649Z" transform="translate(-208.167 -401.999)" fill="#eb996e"/>
                    </g>
                  </g>
                </g>
                <g id="Group_4240" data-name="Group 4240" transform="translate(3.174 42.337)">
                  <g id="Group_4239" data-name="Group 4239">
                    <path id="Path_1284" data-name="Path 1284" d="M215.269,430.562a4.481,4.481,0,0,1,1.377.4,13.6,13.6,0,0,1,3.4,1.961A12.309,12.309,0,0,1,222,434.83a4.125,4.125,0,0,1,1.047,3.032,3.362,3.362,0,0,1-2.4,2.594,6.474,6.474,0,0,1-3.773-.12,69.257,69.257,0,0,1-11.94-4.793,38.5,38.5,0,0,1-3.357-1.985,5.86,5.86,0,0,1-1.145-.863,7.118,7.118,0,0,1,1.268.66c.8.451,1.96,1.087,3.429,1.806a82.911,82.911,0,0,0,11.906,4.59,5.976,5.976,0,0,0,3.425.141,2.807,2.807,0,0,0,2.034-2.11,3.662,3.662,0,0,0-.893-2.645,12.427,12.427,0,0,0-1.834-1.878A20.468,20.468,0,0,0,215.269,430.562Z" transform="translate(-200.435 -430.556)" fill="#eb996e"/>
                  </g>
                </g>
              </g>
              <g id="Group_4242" data-name="Group 4242" transform="translate(151.965 95.018)" opacity="0.3">
                <path id="Path_1285" data-name="Path 1285" d="M335.905,471.061c-11.653-39.3-21.93-89.924-33.583-129.224-4.259,36.285,1.072,84.184,7.752,120.1.783,4.209,1.14,8.335,4.406,11.1l21.424-1.984" transform="translate(-300.797 -341.837)"/>
              </g>
            </g>
            <g id="Group_4244" data-name="Group 4244" transform="translate(137.496 164.41)">
              <path id="Path_1286" data-name="Path 1286" d="M321.531,421.494c-.157.037-.648-2.565-2.228-6.489a45.51,45.51,0,0,0-3.343-6.611,45.765,45.765,0,0,0-12.27-13.216,45.43,45.43,0,0,0-6.345-3.823c-3.8-1.867-6.354-2.55-6.307-2.7a8.418,8.418,0,0,1,1.806.427,16.8,16.8,0,0,1,2.067.683,27.92,27.92,0,0,1,2.669,1.1A41.517,41.517,0,0,1,304.1,394.6a43.629,43.629,0,0,1,12.465,13.426,41.508,41.508,0,0,1,3.242,6.783,27.821,27.821,0,0,1,.9,2.743,16.833,16.833,0,0,1,.529,2.113A8.478,8.478,0,0,1,321.531,421.494Z" transform="translate(-291.038 -388.642)" fill="#263238"/>
            </g>
          </g>
          <path id="Path_1287" data-name="Path 1287" d="M338.726,287.751s-37.27,83.245-37.27,98.529S329.38,507.755,329.38,507.755c-.264,4.213-1.351,25.38-1.351,25.38l156.541.535h0l2.384-33.649-12.219-32.068L486.944,377.3s8.215-52.634,8.946-67.352c.915-18.419-61.474-39.768-59.773-42.316l-10.774-14.421-61.725,50.116-12.194-35.224-14.612,13.811Z" transform="translate(-148.514 -253.213)" fill="#aa80f9"/>
          <path id="Path_1288" data-name="Path 1288" d="M429.731,296.939c-16.941,28.668-47.952,80.913-47.952,80.913l-55.566,63.355s-3.635,32.2,3.635,42.063,19.733,16.618,19.733,16.618,14.671,0,33.3-15.579,70.042-79.973,70.042-79.973l17.656-21.292s21.046-51.716,17.118-78.036c-1.515-10.148-5.834-14.37-11.6-19.023C461.611,274.3,439.2,280.916,429.731,296.939Z" transform="translate(-137.006 -240.259)" fill="#aa80f9"/>
          <g id="Group_4246" data-name="Group 4246" transform="translate(184.372 124.813)">
            <path id="Path_1289" data-name="Path 1289" d="M478.383,337.4a4,4,0,0,1-.256.587c-.2.412-.474.973-.823,1.689-.737,1.477-1.868,3.635-3.413,6.365-3.066,5.471-7.831,13.2-14.068,22.518-3.121,4.657-6.612,9.708-10.44,15.075-3.792,5.4-8.2,10.9-11.794,17.361-3.684,6.4-6.849,13.522-10.784,20.587a129,129,0,0,1-14.12,20.621,82.609,82.609,0,0,1-18.719,16.547,58.881,58.881,0,0,1-21.67,8.391,48.735,48.735,0,0,1-21-.889,40.014,40.014,0,0,1-8.879-3.6A40.582,40.582,0,0,1,335.1,457.7a34.128,34.128,0,0,1-9.168-12,38.787,38.787,0,0,1-2.987-11.035,49.447,49.447,0,0,1-.252-7.221c.046-.8.081-1.417.108-1.875a3.865,3.865,0,0,1,.062-.636,3.825,3.825,0,0,1,.016.64c-.007.458-.018,1.079-.031,1.875a54.492,54.492,0,0,0,.4,7.18,39.046,39.046,0,0,0,3.081,10.892,33.883,33.883,0,0,0,9.125,11.76,40.227,40.227,0,0,0,7.248,4.846,39.6,39.6,0,0,0,8.765,3.508,48.236,48.236,0,0,0,20.711.8,58.344,58.344,0,0,0,21.386-8.33A82.158,82.158,0,0,0,412.1,441.7a129.211,129.211,0,0,0,14.049-20.489c3.923-7.02,7.1-14.136,10.826-20.573,3.637-6.5,8.093-12.019,11.892-17.38,3.847-5.345,7.361-10.373,10.508-15.006,6.289-9.269,11.118-16.946,14.259-22.363,1.583-2.7,2.755-4.835,3.536-6.287.378-.7.673-1.248.89-1.652A3.907,3.907,0,0,1,478.383,337.4Z" transform="translate(-322.656 -337.401)" fill="#263238"/>
          </g>
          <g id="Group_4247" data-name="Group 4247" transform="translate(181.445 198.079)">
            <path id="Path_1290" data-name="Path 1290" d="M325.662,386.831c.065.111-.79.595-1.812,1.732a8.98,8.98,0,0,0-1.01,10.922c.8,1.3,1.549,1.938,1.463,2.035-.044.068-.947-.424-1.917-1.732a8.769,8.769,0,0,1,1.073-11.607A4.42,4.42,0,0,1,325.662,386.831Z" transform="translate(-320.682 -386.82)" fill="#263238"/>
          </g>
          <g id="Group_4248" data-name="Group 4248" transform="translate(196.644 161.638)">
            <path id="Path_1291" data-name="Path 1291" d="M330.934,415.511a3.983,3.983,0,0,1,.87.2c.28.073.621.19,1.033.283l1.438.264a20.553,20.553,0,0,0,9.164-.852,33.783,33.783,0,0,0,11.8-6.934c3.9-3.441,7.4-8.031,11.057-12.832s7.327-9.34,11.392-12.734c2.015-1.693,4-3.192,5.641-4.8a15.915,15.915,0,0,0,3.708-5.107,9.3,9.3,0,0,0-.854-8.749,6.724,6.724,0,0,0-2.679-2,3.492,3.492,0,0,1,.863.248,5.772,5.772,0,0,1,2.05,1.567,9.518,9.518,0,0,1,1.13,9.133,16.314,16.314,0,0,1-3.767,5.367c-1.666,1.669-3.65,3.2-5.631,4.891-3.975,3.368-7.594,7.849-11.241,12.661s-7.2,9.414-11.2,12.9a33.637,33.637,0,0,1-12.105,6.922,20.039,20.039,0,0,1-9.374.626l-1.445-.337c-.411-.12-.749-.262-1.024-.359A3.759,3.759,0,0,1,330.934,415.511Z" transform="translate(-330.934 -362.24)" fill="#263238"/>
          </g>
          <g id="Group_4249" data-name="Group 4249" transform="translate(246.511 47.877)">
            <path id="Path_1292" data-name="Path 1292" d="M418.322,285.507a5.927,5.927,0,0,1-.623.9l-1.9,2.468c-1.69,2.11-4.019,5.254-6.854,9.165a300.349,300.349,0,0,0-19.771,32.127c-6.989,12.992-12.78,25.042-17.206,33.645-2.2,4.307-4.012,7.779-5.316,10.15l-1.509,2.726a5.654,5.654,0,0,1-.572.925,5.679,5.679,0,0,1,.434-1c.35-.706.808-1.634,1.38-2.792,1.242-2.5,2.972-5.984,5.1-10.256,4.3-8.661,10.012-20.751,17.014-33.767a271.785,271.785,0,0,1,20.01-32.081c2.9-3.878,5.3-6.978,7.061-9.033l2.012-2.379A5.693,5.693,0,0,1,418.322,285.507Z" transform="translate(-364.569 -285.506)" fill="#263238"/>
          </g>
          <g id="Group_4250" data-name="Group 4250" transform="translate(184.583 201.848)" opacity="0.3">
            <path id="Path_1293" data-name="Path 1293" d="M322.8,399.858c7.229,3.918,15.162,3.5,23.23,1.917a36.049,36.049,0,0,0,20.748-12.413c-1.4,7.044-4.42,13.929-9.558,18.945s-12.578,7.936-19.642,6.643-14.194-7.935-14.778-15.092" transform="translate(-322.798 -389.362)"/>
          </g>
          <g id="Group_4251" data-name="Group 4251" transform="translate(246.489 129.618)" opacity="0.3">
            <path id="Path_1294" data-name="Path 1294" d="M371,380.586a31.868,31.868,0,0,1,4.4,23.9c6.123-9.373,7.561-21.239,5.912-32.314s-6.145-21.516-11.156-31.526c0,0-5.528,9.331-5.579,10.363-.268,5.388,1.717,15.536,2.758,20.828a11.613,11.613,0,0,1,3.37,10.465" transform="translate(-364.554 -340.642)"/>
          </g>
          <g id="Group_4252" data-name="Group 4252" transform="translate(209.082 132.374)" opacity="0.3">
            <path id="Path_1295" data-name="Path 1295" d="M339.323,461.256c14.732,11.484,36.6,12.025,52.717,2.589,15.525-9.088,25.082-25.449,33.953-41.1,13.734-24.225,30.493-54.183,40.3-80.245,0,0-27.5,37.526-35.793,53.7a267.541,267.541,0,0,1-18.757,31.59c-15.478,22.8-43.506,36.447-71,34.582" transform="translate(-339.323 -342.501)"/>
          </g>
          <g id="Group_4253" data-name="Group 4253" transform="translate(157.648 166.974)">
            <path id="Path_1296" data-name="Path 1296" d="M326.5,478.787a1.7,1.7,0,0,1-.025-.466c.007-.362.015-.807.025-1.351.046-1.26.108-2.981.187-5.139.206-4.51.5-10.833.845-18.44l.013.105c-2.664-8.892-5.779-19.679-9-31.332-4.273-15.447-7.878-29.5-10.3-39.719-1.21-5.109-2.154-9.251-2.746-12.129q-.423-2.073-.675-3.312a6.562,6.562,0,0,1-.184-1.167,6.816,6.816,0,0,1,.335,1.133q.307,1.23.815,3.279c.724,2.928,1.738,7.03,2.983,12.067,2.56,10.178,6.247,24.2,10.519,39.642,3.219,11.648,6.286,22.446,8.867,31.358l.016.055,0,.05c-.461,7.6-.845,13.923-1.118,18.431-.151,2.153-.273,3.871-.36,5.128-.049.543-.088.986-.12,1.346A1.687,1.687,0,0,1,326.5,478.787Z" transform="translate(-304.63 -365.839)" fill="#263238"/>
          </g>
          <g id="Group_4254" data-name="Group 4254" transform="translate(307.217 41.565)">
            <path id="Path_1297" data-name="Path 1297" d="M434.424,284.521c-.046.119-1.6-.433-4.173-1.07a48.024,48.024,0,0,0-20.5-.614c-2.6.482-4.191.94-4.23.818a3.475,3.475,0,0,1,1.07-.47,27.238,27.238,0,0,1,3.048-.884,40.685,40.685,0,0,1,20.759.621,27.413,27.413,0,0,1,2.99,1.065C434.073,284.284,434.443,284.471,434.424,284.521Z" transform="translate(-405.517 -281.249)" fill="#263238"/>
          </g>
          <g id="Group_4255" data-name="Group 4255" transform="translate(239.379 17.502)">
            <path id="Path_1298" data-name="Path 1298" d="M406.918,265.019a3.574,3.574,0,0,1-.394.769c-.332.559-.75,1.262-1.262,2.124-1.115,1.835-2.765,4.467-4.855,7.686-4.194,6.428-10.194,15.183-17.291,24.505-5.709,7.514-11.241,14.253-15.771,19.536l-.317.371-.2-.439c-2.151-4.722-3.935-8.631-5.227-11.466-.575-1.311-1.041-2.369-1.4-3.186a6.169,6.169,0,0,1-.436-1.148,6.189,6.189,0,0,1,.6,1.069q.6,1.2,1.552,3.115c1.354,2.806,3.219,6.677,5.471,11.352l-.519-.07c4.452-5.336,9.93-12.1,15.632-19.6,7.085-9.306,13.144-18,17.45-24.341,2.092-3.119,3.8-5.675,5.057-7.543l1.383-2.047A3.7,3.7,0,0,1,406.918,265.019Z" transform="translate(-359.759 -265.019)" fill="#263238"/>
          </g>
          <g id="Group_4256" data-name="Group 4256" transform="translate(322.535 222.27)">
            <path id="Path_1299" data-name="Path 1299" d="M415.888,437.426c-.212-.024.469-7.718,1.518-17.186s2.073-17.126,2.285-17.1-.467,7.718-1.518,17.187S416.1,437.449,415.888,437.426Z" transform="translate(-415.849 -403.137)" fill="#263238"/>
          </g>
          <g id="Group_4257" data-name="Group 4257" transform="translate(215.22 254.542)">
            <path id="Path_1300" data-name="Path 1300" d="M343.516,424.9c.212-.022,1,5.761,1.766,12.916s1.211,12.977,1,13-1-5.76-1.767-12.917S343.3,424.927,343.516,424.9Z" transform="translate(-343.463 -424.905)" fill="#263238"/>
          </g>
          <path id="Path_1301" data-name="Path 1301" d="M398.049,311.166a1.893,1.893,0,0,0-2.875-1.142l-.1.082a1.8,1.8,0,1,0,2.974,1.06Z" transform="translate(-103.592 -225.953)" fill="#fff"/>
          <path id="Path_1302" data-name="Path 1302" d="M387.622,285.751a1.894,1.894,0,0,0-2.875-1.142l-.1.083a1.8,1.8,0,1,0,2.974,1.059Z" transform="translate(-108.624 -238.217)" fill="#fff"/>
          <path id="Path_1303" data-name="Path 1303" d="M363.693,306.214a1.9,1.9,0,0,0-2.875-1.142l-.1.083a1.8,1.8,0,1,0,2.974,1.059Z" transform="translate(-120.171 -228.342)" fill="#fff"/>
          <path id="Path_1304" data-name="Path 1304" d="M337.825,295.939a1.894,1.894,0,0,0-2.875-1.142l-.1.082a1.8,1.8,0,1,0,2.974,1.06Z" transform="translate(-132.654 -233.301)" fill="#fff"/>
          <path id="Path_1305" data-name="Path 1305" d="M333.248,285.809a1.892,1.892,0,0,0-2.873-1.142l-.1.083a1.8,1.8,0,1,0,2.974,1.059Z" transform="translate(-134.862 -238.189)" fill="#fff"/>
          <path id="Path_1306" data-name="Path 1306" d="M335.235,274.1a1.892,1.892,0,0,0-2.873-1.142l-.1.082a1.8,1.8,0,1,0,2.974,1.06Z" transform="translate(-133.904 -243.837)" fill="#fff"/>
          <path id="Path_1307" data-name="Path 1307" d="M320.91,290.2a1.894,1.894,0,0,0-2.875-1.142l-.1.082a1.8,1.8,0,1,0,2.974,1.06Z" transform="translate(-140.816 -236.068)" fill="#fff"/>
          <path id="Path_1308" data-name="Path 1308" d="M354.093,294.847a1.892,1.892,0,0,0-2.873-1.142l-.1.082a1.8,1.8,0,1,0,2.973,1.06Z" transform="translate(-124.803 -233.828)" fill="#fff"/>
          <path id="Path_1309" data-name="Path 1309" d="M326,315.713a1.9,1.9,0,0,0-2.875-1.143l-.1.083a1.8,1.8,0,1,0,2.974,1.06Z" transform="translate(-138.36 -223.759)" fill="#fff"/>
          <path id="Path_1310" data-name="Path 1310" d="M300.281,375.732a1.9,1.9,0,0,0-2.875-1.142l-.1.083a1.8,1.8,0,1,0,2.974,1.059Z" transform="translate(-150.771 -194.796)" fill="#fff"/>
          <path id="Path_1311" data-name="Path 1311" d="M309.457,341.118a1.893,1.893,0,0,0-2.875-1.142l-.1.082a1.8,1.8,0,1,0,2.974,1.06Z" transform="translate(-146.343 -211.5)" fill="#fff"/>
          <path id="Path_1312" data-name="Path 1312" d="M377.095,280.331a1.894,1.894,0,0,0-2.873-1.142l-.1.083a1.8,1.8,0,1,0,2.974,1.059Z" transform="translate(-113.704 -240.832)" fill="#fff"/>
          <path id="Path_1313" data-name="Path 1313" d="M409.376,349.261a1.894,1.894,0,0,0-2.875-1.141l-.1.081a1.8,1.8,0,1,0,2.974,1.06Z" transform="translate(-98.127 -207.57)" fill="#fff"/>
          <path id="Path_1314" data-name="Path 1314" d="M421.954,289.943a1.894,1.894,0,0,0-2.875-1.142l-.1.083a1.8,1.8,0,1,0,2.974,1.059Z" transform="translate(-92.057 -236.194)" fill="#fff"/>
          <path id="Path_1315" data-name="Path 1315" d="M417.015,328.789a1.892,1.892,0,0,0-2.873-1.142l-.1.083a1.8,1.8,0,1,0,2.974,1.059Z" transform="translate(-94.44 -217.449)" fill="#fff"/>
          <path id="Path_1316" data-name="Path 1316" d="M388.809,356.838a1.894,1.894,0,0,0-2.875-1.142l-.1.083a1.8,1.8,0,1,0,2.974,1.059Z" transform="translate(-108.051 -203.914)" fill="#fff"/>
          <path id="Path_1317" data-name="Path 1317" d="M390,333.489a1.894,1.894,0,0,0-2.875-1.142l-.1.083A1.8,1.8,0,1,0,390,333.489Z" transform="translate(-107.479 -215.181)" fill="#fff"/>
          <path id="Path_1318" data-name="Path 1318" d="M407.014,290.146A1.893,1.893,0,0,0,404.139,289l-.1.082a1.8,1.8,0,1,0,2.974,1.06Z" transform="translate(-99.266 -236.096)" fill="#fff"/>
          <path id="Path_1319" data-name="Path 1319" d="M384.1,267.523a1.893,1.893,0,0,0-2.875-1.142l-.1.083a1.8,1.8,0,1,0,2.974,1.059Z" transform="translate(-110.321 -247.013)" fill="#fff"/>
          <path id="Path_1320" data-name="Path 1320" d="M383.274,303.99a1.9,1.9,0,0,0-2.875-1.142l-.1.083a1.8,1.8,0,1,0,2.974,1.059Z" transform="translate(-110.723 -229.415)" fill="#fff"/>
          <path id="Path_1321" data-name="Path 1321" d="M354.027,415.24a1.894,1.894,0,0,0-2.873-1.142l-.1.083a1.8,1.8,0,1,0,2.974,1.059Z" transform="translate(-124.835 -175.731)" fill="#fff"/>
          <path id="Path_1322" data-name="Path 1322" d="M320.478,396.947a1.893,1.893,0,0,0-2.873-1.142l-.1.083a1.8,1.8,0,1,0,2.972,1.059Z" transform="translate(-141.024 -184.559)" fill="#fff"/>
          <path id="Path_1323" data-name="Path 1323" d="M293.353,405.914a1.9,1.9,0,0,0-2.875-1.143l-.1.083a1.8,1.8,0,1,0,2.974,1.06Z" transform="translate(-154.114 -180.232)" fill="#fff"/>
          <path id="Path_1324" data-name="Path 1324" d="M290.45,421.363a1.894,1.894,0,0,0-2.875-1.142l-.1.083a1.8,1.8,0,1,0,2.974,1.059Z" transform="translate(-155.515 -172.777)" fill="#fff"/>
          <path id="Path_1325" data-name="Path 1325" d="M315.883,426.539a1.894,1.894,0,0,0-2.875-1.142l-.1.083a1.8,1.8,0,1,0,2.974,1.059Z" transform="translate(-143.242 -170.28)" fill="#fff"/>
          <path id="Path_1326" data-name="Path 1326" d="M307.378,391.939A1.894,1.894,0,0,0,304.5,390.8l-.1.083a1.8,1.8,0,1,0,2.974,1.059Z" transform="translate(-147.346 -186.975)" fill="#fff"/>
          <path id="Path_1327" data-name="Path 1327" d="M338.582,400.732a1.894,1.894,0,0,0-2.875-1.142l-.1.082a1.8,1.8,0,1,0,2.974,1.06Z" transform="translate(-132.289 -182.733)" fill="#fff"/>
          <path id="Path_1328" data-name="Path 1328" d="M412.755,391.882a1.894,1.894,0,0,0-2.875-1.142l-.1.083a1.8,1.8,0,1,0,2.974,1.059Z" transform="translate(-96.496 -187.003)" fill="#fff"/>
          <path id="Path_1329" data-name="Path 1329" d="M366.861,435.859a1.894,1.894,0,0,0-2.875-1.142l-.1.082a1.8,1.8,0,1,0,2.974,1.06Z" transform="translate(-118.642 -165.782)" fill="#fff"/>
          <path id="Path_1330" data-name="Path 1330" d="M386.435,411.379a1.894,1.894,0,0,0-2.875-1.142l-.1.083a1.8,1.8,0,1,0,2.974,1.059Z" transform="translate(-109.197 -177.595)" fill="#fff"/>
          <path id="Path_1331" data-name="Path 1331" d="M398.061,431.287a1.9,1.9,0,0,0-2.875-1.142l-.1.083a1.8,1.8,0,1,0,2.974,1.059Z" transform="translate(-103.587 -167.988)" fill="#fff"/>
          <path id="Path_1332" data-name="Path 1332" d="M365.711,327.025a1.9,1.9,0,0,0-2.875-1.142l-.1.083a1.8,1.8,0,1,0,2.974,1.059Z" transform="translate(-119.197 -218.3)" fill="#fff"/>
          <path id="Path_1333" data-name="Path 1333" d="M392.035,377.851a1.9,1.9,0,0,0-2.875-1.142l-.1.083a1.8,1.8,0,1,0,2.974,1.059Z" transform="translate(-106.495 -193.773)" fill="#fff"/>
          <path id="Path_1334" data-name="Path 1334" d="M383.5,397.1a1.892,1.892,0,0,0-2.873-1.142l-.1.082a1.8,1.8,0,1,0,2.973,1.06Z" transform="translate(-110.614 -184.483)" fill="#fff"/>
          <path id="Path_1335" data-name="Path 1335" d="M411.568,412.567a1.894,1.894,0,0,0-2.875-1.142l-.1.083a1.8,1.8,0,1,0,2.974,1.059Z" transform="translate(-97.069 -177.022)" fill="#fff"/>
          <path id="Path_1336" data-name="Path 1336" d="M334.76,434.891a1.894,1.894,0,0,0-2.875-1.142l-.1.083a1.8,1.8,0,1,0,2.974,1.059Z" transform="translate(-134.133 -166.249)" fill="#fff"/>
          <path id="Path_1337" data-name="Path 1337" d="M270.757,429.051a1.893,1.893,0,0,0-2.875-1.142l-.1.083a1.8,1.8,0,1,0,2.974,1.059Z" transform="translate(-165.018 -169.067)" fill="#fff"/>
          <path id="Path_1338" data-name="Path 1338" d="M327.118,418.539a1.893,1.893,0,0,0-2.873-1.142l-.1.083a1.8,1.8,0,1,0,2.973,1.059Z" transform="translate(-137.82 -174.14)" fill="#fff"/>
          <path id="Path_1339" data-name="Path 1339" d="M273.131,407.1a1.893,1.893,0,0,0-2.875-1.142l-.1.082a1.8,1.8,0,1,0,2.974,1.06Z" transform="translate(-163.872 -179.659)" fill="#fff"/>
          <path id="Path_1340" data-name="Path 1340" d="M363.337,370.8a1.9,1.9,0,0,0-2.875-1.142l-.1.083a1.8,1.8,0,1,0,2.974,1.059Z" transform="translate(-120.343 -197.174)" fill="#fff"/>
          <path id="Path_1341" data-name="Path 1341" d="M344.459,315.713a1.9,1.9,0,0,0-2.875-1.143l-.1.083a1.8,1.8,0,1,0,2.974,1.06Z" transform="translate(-129.453 -223.759)" fill="#fff"/>
          <path id="Path_1342" data-name="Path 1342" d="M339.742,363.489a1.893,1.893,0,0,0-2.873-1.142l-.1.083a1.8,1.8,0,1,0,2.974,1.059Z" transform="translate(-131.729 -200.704)" fill="#fff"/>
          <path id="Path_1343" data-name="Path 1343" d="M332.061,347.9a1.893,1.893,0,0,0-2.873-1.142l-.1.083a1.8,1.8,0,1,0,2.974,1.059Z" transform="translate(-135.435 -208.224)" fill="#fff"/>
          <path id="Path_1344" data-name="Path 1344" d="M366.028,396.889a1.894,1.894,0,0,0-2.875-1.142l-.1.083a1.8,1.8,0,1,0,2.974,1.059Z" transform="translate(-119.044 -184.587)" fill="#fff"/>
          <path id="Path_1345" data-name="Path 1345" d="M342.085,387.276a1.9,1.9,0,0,0-2.875-1.142l-.1.083a1.8,1.8,0,1,0,2.974,1.058Z" transform="translate(-130.598 -189.225)" fill="#fff"/>
          <path id="Path_1346" data-name="Path 1346" d="M352.334,334.523a1.9,1.9,0,0,0-2.875-1.143l-.1.083a1.8,1.8,0,1,0,2.974,1.06Z" transform="translate(-125.652 -214.682)" fill="#fff"/>
          <path id="Path_1347" data-name="Path 1347" d="M315.883,371.876a1.9,1.9,0,0,0-2.875-1.142l-.1.083a1.8,1.8,0,1,0,2.974,1.059Z" transform="translate(-143.242 -196.657)" fill="#fff"/>
          <path id="Path_1348" data-name="Path 1348" d="M372.144,354.732a1.893,1.893,0,0,0-2.873-1.142l-.1.083a1.8,1.8,0,1,0,2.972,1.059Z" transform="translate(-116.092 -204.93)" fill="#fff"/>
          <path id="Path_1349" data-name="Path 1349" d="M424.328,309.978a1.9,1.9,0,0,0-2.875-1.143l-.1.083a1.8,1.8,0,1,0,2.974,1.06Z" transform="translate(-90.912 -226.527)" fill="#fff"/>
          <path id="Path_1350" data-name="Path 1350" d="M403.14,276.088a1.893,1.893,0,0,0-2.873-1.142l-.1.083a1.8,1.8,0,1,0,2.974,1.059Z" transform="translate(-101.136 -242.88)" fill="#fff"/>
          <path id="Path_1351" data-name="Path 1351" d="M362.076,280.331a1.9,1.9,0,0,0-2.875-1.142l-.1.083a1.8,1.8,0,1,0,2.974,1.059Z" transform="translate(-120.951 -240.832)" fill="#fff"/>
        </g>
        <g id="Group_4406" data-name="Group 4406" transform="translate(133.193)">
          <g id="Group_4392" data-name="Group 4392" transform="translate(23.461)">
            <g id="Group_4391" data-name="Group 4391">
              <g id="Group_4260" data-name="Group 4260" transform="translate(0 24.649)">
                <g id="Group_4259" data-name="Group 4259">
                  <path id="Path_1352" data-name="Path 1352" d="M326.335,158.209c-11.678,7.432-16.338,23-14.111,32.2,1.122,4.637,3.228,9.3,2.308,13.986-.795,4.046-3.7,7.282-5.88,10.784-7.262,11.678-5.975,28.02,3.023,38.42s24.985,14.02,37.587,8.514" transform="translate(-303.96 -158.209)" fill="#263238"/>
                </g>
              </g>
              <g id="Group_4367" data-name="Group 4367" transform="translate(8.673)">
                <g id="Group_4263" data-name="Group 4263">
                  <g id="Group_4262" data-name="Group 4262">
                    <g id="Group_4261" data-name="Group 4261">
                      <path id="Path_1353" data-name="Path 1353" d="M316.6,227c-28.406-62.475,39.16-93.86,76.03-83.448,34.649,9.786,49.427,27.03,55.127,50.2s5.431,48.293-3.654,70.374c-4.48,10.886-12.548,21.948-24.243,23.309" transform="translate(-309.81 -141.583)" fill="#263238"/>
                    </g>
                  </g>
                </g>
                <g id="Group_4366" data-name="Group 4366" transform="translate(6.526 20.578)">
                  <g id="Group_4365" data-name="Group 4365">
                    <g id="Group_4364" data-name="Group 4364">
                      <g id="Group_4363" data-name="Group 4363">
                        <g id="Group_4344" data-name="Group 4344">
                          <g id="Group_4343" data-name="Group 4343">
                            <g id="Group_4342" data-name="Group 4342">
                              <g id="Group_4272" data-name="Group 4272">
                                <g id="Group_4271" data-name="Group 4271">
                                  <g id="Group_4270" data-name="Group 4270">
                                    <g id="Group_4269" data-name="Group 4269">
                                      <g id="Group_4268" data-name="Group 4268">
                                        <g id="Group_4267" data-name="Group 4267">
                                          <g id="Group_4266" data-name="Group 4266">
                                            <g id="Group_4265" data-name="Group 4265">
                                              <g id="Group_4264" data-name="Group 4264">
                                                <path id="Path_1354" data-name="Path 1354" d="M347.758,372.872c-.491-29.848-.838-70.851-.848-70.682,0,0-25.659-4.259-30.973-37.735-2.645-16.648-1.807-43.944-.4-66.257,1.266-20.084,14.572-44.724,34.582-42.607L412.6,171.384a11.773,11.773,0,0,1,10.534,11.942h0l-4.071,129.246" transform="translate(-314.212 -155.463)" fill="#ffbe9d"/>
                                              </g>
                                            </g>
                                          </g>
                                        </g>
                                      </g>
                                    </g>
                                  </g>
                                </g>
                              </g>
                              <g id="Group_4286" data-name="Group 4286" transform="translate(12.49 59.37)">
                                <g id="Group_4285" data-name="Group 4285">
                                  <g id="Group_4284" data-name="Group 4284">
                                    <g id="Group_4283" data-name="Group 4283">
                                      <g id="Group_4282" data-name="Group 4282">
                                        <g id="Group_4281" data-name="Group 4281">
                                          <g id="Group_4280" data-name="Group 4280">
                                            <g id="Group_4279" data-name="Group 4279">
                                              <g id="Group_4278" data-name="Group 4278">
                                                <g id="Group_4277" data-name="Group 4277">
                                                  <g id="Group_4276" data-name="Group 4276">
                                                    <g id="Group_4275" data-name="Group 4275">
                                                      <g id="Group_4274" data-name="Group 4274">
                                                        <g id="Group_4273" data-name="Group 4273">
                                                          <path id="Path_1355" data-name="Path 1355" d="M322.641,199.316a4.265,4.265,0,0,0,4.064,4.353,4.082,4.082,0,0,0,4.445-3.8,4.271,4.271,0,0,0-4.061-4.356A4.083,4.083,0,0,0,322.641,199.316Z" transform="translate(-322.637 -195.508)" fill="#263238"/>
                                                        </g>
                                                      </g>
                                                    </g>
                                                  </g>
                                                </g>
                                              </g>
                                            </g>
                                          </g>
                                        </g>
                                      </g>
                                    </g>
                                  </g>
                                </g>
                              </g>
                              <g id="Group_4300" data-name="Group 4300" transform="translate(56.848 59.37)">
                                <g id="Group_4299" data-name="Group 4299">
                                  <g id="Group_4298" data-name="Group 4298">
                                    <g id="Group_4297" data-name="Group 4297">
                                      <g id="Group_4296" data-name="Group 4296">
                                        <g id="Group_4295" data-name="Group 4295">
                                          <g id="Group_4294" data-name="Group 4294">
                                            <g id="Group_4293" data-name="Group 4293">
                                              <g id="Group_4292" data-name="Group 4292">
                                                <g id="Group_4291" data-name="Group 4291">
                                                  <g id="Group_4290" data-name="Group 4290">
                                                    <g id="Group_4289" data-name="Group 4289">
                                                      <g id="Group_4288" data-name="Group 4288">
                                                        <g id="Group_4287" data-name="Group 4287">
                                                          <path id="Path_1356" data-name="Path 1356" d="M352.561,199.316a4.267,4.267,0,0,0,4.064,4.353,4.081,4.081,0,0,0,4.445-3.8,4.27,4.27,0,0,0-4.059-4.356A4.084,4.084,0,0,0,352.561,199.316Z" transform="translate(-352.557 -195.508)" fill="#263238"/>
                                                        </g>
                                                      </g>
                                                    </g>
                                                  </g>
                                                </g>
                                              </g>
                                            </g>
                                          </g>
                                        </g>
                                      </g>
                                    </g>
                                  </g>
                                </g>
                              </g>
                              <g id="Group_4311" data-name="Group 4311" transform="translate(7.811 51.141)">
                                <g id="Group_4310" data-name="Group 4310">
                                  <g id="Group_4309" data-name="Group 4309">
                                    <g id="Group_4308" data-name="Group 4308">
                                      <g id="Group_4307" data-name="Group 4307">
                                        <g id="Group_4306" data-name="Group 4306">
                                          <g id="Group_4305" data-name="Group 4305">
                                            <g id="Group_4304" data-name="Group 4304">
                                              <g id="Group_4303" data-name="Group 4303">
                                                <g id="Group_4302" data-name="Group 4302">
                                                  <g id="Group_4301" data-name="Group 4301">
                                                    <path id="Path_1357" data-name="Path 1357" d="M319.543,194.2c.513.578,3.844-1.72,8.461-1.554,4.614.1,7.924,2.587,8.445,2.038.253-.242-.255-1.271-1.695-2.394a11.788,11.788,0,0,0-6.737-2.323,11.319,11.319,0,0,0-6.758,1.935C319.8,192.941,319.288,193.936,319.543,194.2Z" transform="translate(-319.481 -189.958)" fill="#263238"/>
                                                  </g>
                                                </g>
                                              </g>
                                            </g>
                                          </g>
                                        </g>
                                      </g>
                                    </g>
                                  </g>
                                </g>
                              </g>
                              <g id="Group_4322" data-name="Group 4322" transform="translate(51.649 51.931)">
                                <g id="Group_4321" data-name="Group 4321">
                                  <g id="Group_4320" data-name="Group 4320">
                                    <g id="Group_4319" data-name="Group 4319">
                                      <g id="Group_4318" data-name="Group 4318">
                                        <g id="Group_4317" data-name="Group 4317">
                                          <g id="Group_4316" data-name="Group 4316">
                                            <g id="Group_4315" data-name="Group 4315">
                                              <g id="Group_4314" data-name="Group 4314">
                                                <g id="Group_4313" data-name="Group 4313">
                                                  <g id="Group_4312" data-name="Group 4312">
                                                    <path id="Path_1358" data-name="Path 1358" d="M349.118,195.043c.537.557,3.782-1.865,8.4-1.872,4.614-.076,8.016,2.286,8.514,1.718.245-.252-.3-1.259-1.784-2.328a11.78,11.78,0,0,0-6.818-2.07,11.329,11.329,0,0,0-6.68,2.19C349.336,193.778,348.857,194.792,349.118,195.043Z" transform="translate(-349.05 -190.491)" fill="#263238"/>
                                                  </g>
                                                </g>
                                              </g>
                                            </g>
                                          </g>
                                        </g>
                                      </g>
                                    </g>
                                  </g>
                                </g>
                              </g>
                              <g id="Group_4332" data-name="Group 4332" transform="translate(24.118 53.564)">
                                <g id="Group_4331" data-name="Group 4331">
                                  <g id="Group_4330" data-name="Group 4330">
                                    <g id="Group_4329" data-name="Group 4329">
                                      <g id="Group_4328" data-name="Group 4328">
                                        <g id="Group_4327" data-name="Group 4327">
                                          <g id="Group_4326" data-name="Group 4326">
                                            <g id="Group_4325" data-name="Group 4325">
                                              <g id="Group_4324" data-name="Group 4324">
                                                <g id="Group_4323" data-name="Group 4323">
                                                  <path id="Path_1359" data-name="Path 1359" d="M342.251,230.086c.021-.262-2.851-.759-7.5-1.354-1.18-.122-2.3-.356-2.5-1.161-.277-.854.216-2.125.789-3.5q1.663-4.281,3.488-8.983c4.845-12.79,8.351-23.307,7.835-23.5s-4.864,10.022-9.708,22.811c-1.167,3.155-2.282,6.16-3.343,9.038-.446,1.34-1.214,2.861-.611,4.63a2.959,2.959,0,0,0,1.939,1.724,8.014,8.014,0,0,0,2,.279C339.328,230.328,342.234,230.349,342.251,230.086Z" transform="translate(-330.48 -191.592)" fill="#263238"/>
                                                </g>
                                              </g>
                                            </g>
                                          </g>
                                        </g>
                                      </g>
                                    </g>
                                  </g>
                                </g>
                              </g>
                              <g id="Group_4341" data-name="Group 4341" transform="translate(32.698 134.769)">
                                <g id="Group_4340" data-name="Group 4340">
                                  <g id="Group_4339" data-name="Group 4339">
                                    <g id="Group_4338" data-name="Group 4338">
                                      <g id="Group_4337" data-name="Group 4337">
                                        <g id="Group_4336" data-name="Group 4336">
                                          <g id="Group_4335" data-name="Group 4335">
                                            <g id="Group_4334" data-name="Group 4334">
                                              <g id="Group_4333" data-name="Group 4333">
                                                <path id="Path_1360" data-name="Path 1360" d="M336.267,258.324A85.156,85.156,0,0,0,381.1,246.366s-11.328,23.289-44.832,20.157Z" transform="translate(-336.267 -246.366)" fill="#eb996e"/>
                                              </g>
                                            </g>
                                          </g>
                                        </g>
                                      </g>
                                    </g>
                                  </g>
                                </g>
                              </g>
                            </g>
                          </g>
                        </g>
                        <g id="Group_4353" data-name="Group 4353" transform="translate(50.553 46.448)">
                          <g id="Group_4352" data-name="Group 4352">
                            <g id="Group_4351" data-name="Group 4351">
                              <g id="Group_4350" data-name="Group 4350">
                                <g id="Group_4349" data-name="Group 4349">
                                  <g id="Group_4348" data-name="Group 4348">
                                    <g id="Group_4347" data-name="Group 4347">
                                      <g id="Group_4346" data-name="Group 4346">
                                        <g id="Group_4345" data-name="Group 4345">
                                          <path id="Path_1361" data-name="Path 1361" d="M348.335,190.256c.455,1.256,5.069.661,10.488,1.315,5.435.544,9.806,2.13,10.523,1,.322-.54-.44-1.72-2.208-2.937a18.375,18.375,0,0,0-16.009-1.767C349.141,188.674,348.139,189.66,348.335,190.256Z" transform="translate(-348.311 -186.793)" fill="#263238"/>
                                        </g>
                                      </g>
                                    </g>
                                  </g>
                                </g>
                              </g>
                            </g>
                          </g>
                        </g>
                        <g id="Group_4362" data-name="Group 4362" transform="translate(8.823 38.983)">
                          <g id="Group_4361" data-name="Group 4361">
                            <g id="Group_4360" data-name="Group 4360">
                              <g id="Group_4359" data-name="Group 4359">
                                <g id="Group_4358" data-name="Group 4358">
                                  <g id="Group_4357" data-name="Group 4357">
                                    <g id="Group_4356" data-name="Group 4356">
                                      <g id="Group_4355" data-name="Group 4355">
                                        <g id="Group_4354" data-name="Group 4354">
                                          <path id="Path_1362" data-name="Path 1362" d="M320.281,186.543c.814,1.048,4-.04,7.823-.09,3.825-.185,7.067.7,7.815-.393.326-.534-.184-1.583-1.6-2.577a11.326,11.326,0,0,0-12.6.388C320.369,184.95,319.924,186.031,320.281,186.543Z" transform="translate(-320.163 -181.757)" fill="#263238"/>
                                        </g>
                                      </g>
                                    </g>
                                  </g>
                                </g>
                              </g>
                            </g>
                          </g>
                        </g>
                      </g>
                    </g>
                  </g>
                </g>
              </g>
              <g id="Group_4385" data-name="Group 4385" transform="translate(116.506 90.86)">
                <g id="Group_4375" data-name="Group 4375">
                  <g id="Group_4374" data-name="Group 4374">
                    <g id="Group_4373" data-name="Group 4373">
                      <g id="Group_4372" data-name="Group 4372">
                        <g id="Group_4371" data-name="Group 4371">
                          <g id="Group_4370" data-name="Group 4370">
                            <g id="Group_4369" data-name="Group 4369">
                              <g id="Group_4368" data-name="Group 4368">
                                <path id="Path_1363" data-name="Path 1363" d="M384.422,204.521c.491-.237,17.918-7.945,18.123,12.1s-19.96,16.114-20,15.54S384.422,204.521,384.422,204.521Z" transform="translate(-382.545 -202.869)" fill="#ffbe9d"/>
                              </g>
                            </g>
                          </g>
                        </g>
                      </g>
                    </g>
                  </g>
                </g>
                <g id="Group_4384" data-name="Group 4384" transform="translate(6.027 5.737)">
                  <g id="Group_4383" data-name="Group 4383">
                    <g id="Group_4382" data-name="Group 4382">
                      <g id="Group_4381" data-name="Group 4381">
                        <g id="Group_4380" data-name="Group 4380">
                          <g id="Group_4379" data-name="Group 4379">
                            <g id="Group_4378" data-name="Group 4378">
                              <g id="Group_4377" data-name="Group 4377">
                                <g id="Group_4376" data-name="Group 4376">
                                  <path id="Path_1364" data-name="Path 1364" d="M386.628,222.634c.087-.065.353.24.944.506a3.5,3.5,0,0,0,2.611.027c2.11-.8,3.858-4.179,3.918-7.792a11.519,11.519,0,0,0-1.029-4.989,4.026,4.026,0,0,0-2.654-2.652,1.776,1.776,0,0,0-2.05.977c-.262.563-.13.962-.237,1-.055.05-.433-.331-.28-1.161a2.227,2.227,0,0,1,.775-1.265,2.639,2.639,0,0,1,1.926-.529c1.546.09,2.952,1.5,3.678,3.07A11.838,11.838,0,0,1,395.5,215.4c-.087,4.04-2.116,7.84-5.005,8.707a3.736,3.736,0,0,1-3.2-.5C386.669,223.117,386.56,222.671,386.628,222.634Z" transform="translate(-386.61 -206.738)" fill="#eb996e"/>
                                </g>
                              </g>
                            </g>
                          </g>
                        </g>
                      </g>
                    </g>
                  </g>
                </g>
              </g>
              <g id="Group_4387" data-name="Group 4387" transform="translate(31.526 10.82)">
                <g id="Group_4386" data-name="Group 4386">
                  <path id="Path_1365" data-name="Path 1365" d="M338.129,148.881c-11.15,5.761-15.74,28.575-11.126,40.247s17.046,17.373,29.307,20.059,24.281,3,36.373-.359c.841,8.13,5.715,16.479,13.6,18.624,10.445,2.841,20.972-6.725,23.3-17.3s-1.158-21.458-4.6-31.722" transform="translate(-325.224 -148.881)" fill="#263238"/>
                </g>
              </g>
              <g id="Group_4390" data-name="Group 4390" transform="translate(96.988 69.047)">
                <g id="Group_4389" data-name="Group 4389">
                  <g id="Group_4388" data-name="Group 4388">
                    <path id="Path_1366" data-name="Path 1366" d="M405.254,202.652c.047.064-.5.584-1.545,1.462a54.659,54.659,0,0,1-4.624,3.487,28.267,28.267,0,0,1-7.792,3.77,16.864,16.864,0,0,1-10.636-.156,16.489,16.489,0,0,1-8.049-6.959,22.308,22.308,0,0,1-2.885-8.182,29.6,29.6,0,0,1-.316-5.8,6.557,6.557,0,0,1,.262-2.114c.219,0-.019,3.047.858,7.774a22.833,22.833,0,0,0,2.984,7.763,15.829,15.829,0,0,0,7.555,6.44,16.21,16.21,0,0,0,9.941.211,29.666,29.666,0,0,0,7.638-3.434C402.738,204.35,405.135,202.488,405.254,202.652Z" transform="translate(-369.379 -188.156)" fill="#263238"/>
                  </g>
                </g>
              </g>
            </g>
          </g>
          <g id="Group_4398" data-name="Group 4398" transform="translate(73.57 119.741)">
            <g id="Group_4394" data-name="Group 4394" transform="translate(1.75 0.95)">
              <g id="Group_4393" data-name="Group 4393">
                <path id="Path_1367" data-name="Path 1367" d="M339.535,227.807a19.192,19.192,0,0,0,2.489,4.881,6.481,6.481,0,0,0,4.609,2.676,5.816,5.816,0,0,0,4.921-2.683,9.294,9.294,0,0,0,1.371-5.6c-.079-1.764-.887-3.869-2.64-4.078a4.408,4.408,0,0,0-2.129.473l-9.217,3.737" transform="translate(-338.939 -222.99)" fill="#eb996e"/>
              </g>
            </g>
            <g id="Group_4397" data-name="Group 4397">
              <g id="Group_4396" data-name="Group 4396">
                <g id="Group_4395" data-name="Group 4395">
                  <path id="Path_1368" data-name="Path 1368" d="M343.786,235.7c.046-.289,2.07.534,4.915-.608a7.028,7.028,0,0,0,3.717-3.376,7.4,7.4,0,0,0,.12-6.03,6.591,6.591,0,0,0-.8-1.377c-.365-.383-.3-.366-.7-.307-.375.1-.981.385-1.477.58q-.769.314-1.514.615c-1.973.8-3.758,1.5-5.268,2.061-3.018,1.127-4.929,1.72-5.018,1.511s1.66-1.18,4.562-2.581c1.45-.7,3.187-1.509,5.128-2.384.488-.218.986-.442,1.493-.667a16.423,16.423,0,0,1,1.683-.694,2.153,2.153,0,0,1,1.367.04,2.528,2.528,0,0,1,1.017.8,7.91,7.91,0,0,1,1.036,1.748,8.636,8.636,0,0,1-.282,7.373,7.886,7.886,0,0,1-4.677,3.784,7.446,7.446,0,0,1-3.994.154C344.178,236.1,343.749,235.791,343.786,235.7Z" transform="translate(-337.759 -222.35)" fill="#263238"/>
                </g>
              </g>
            </g>
          </g>
          <path id="Path_1369" data-name="Path 1369" d="M404.627,194.731c-2.055-.144-18.606,2-17.3,32.769,1.219,28.739,21.38,22.412,27.814,11.592C421.233,228.84,424.754,196.144,404.627,194.731Z" transform="translate(-240.306 -115.939)" fill="#fff"/>
          <g id="Group_4399" data-name="Group 4399" transform="translate(153.051 39.943)">
            <path id="Path_1370" data-name="Path 1370" d="M412.873,211.009a3.9,3.9,0,0,1-.077-.809c-.025-.6-.058-1.376-.1-2.342-.059-2.124-.142-5.085-.245-8.765-.151-7.558-.363-18.055-.606-30.179l.372.366-8.534.012.383-.393c.062,2.291.128,4.707.194,7.159.286,11.548.553,22.3.777,31.3l.006.265-.255.059A15.532,15.532,0,0,0,396,213.343a20.742,20.742,0,0,0-3.511,7.423,31,31,0,0,0-.9,5.256c-.055.614-.084,1.087-.1,1.4a2.137,2.137,0,0,1-.047.483,1.569,1.569,0,0,1-.053-.483c-.018-.32-.019-.8,0-1.416a27.208,27.208,0,0,1,.737-5.336,20.7,20.7,0,0,1,3.453-7.648,16,16,0,0,1,9.061-5.972l-.249.323c-.258-9-.568-19.752-.9-31.3-.065-2.452-.129-4.869-.19-7.161l-.01-.393h.394l8.534.012h.368l0,.366c.133,12.124.249,22.624.332,30.182.012,3.681.021,6.642.028,8.768-.01.968-.019,1.745-.025,2.345A3.772,3.772,0,0,1,412.873,211.009Z" transform="translate(-391.37 -168.525)" fill="#ff4a67"/>
          </g>
          <path id="Path_1371" data-name="Path 1371" d="M416.544,181.76S407.889,161.5,387.259,151.5a122.549,122.549,0,0,0-24.711-9.162s12.034-2.857,31.509,5.807c8.849,3.936,17.764,9.064,23.659,16.748,3.745,4.881,8.419,14.419,8.412,16.864Z" transform="translate(-252.227 -141.434)" fill="#ff4a67"/>
          <g id="Group_4400" data-name="Group 4400" transform="translate(110.915 131.619)">
            <path id="Path_1372" data-name="Path 1372" d="M362.949,384.38a3.472,3.472,0,0,1,.369-.4c.246-.264.639-.633,1.119-1.153a55.643,55.643,0,0,0,4-4.747,77.757,77.757,0,0,0,5.407-8.3c1.935-3.365,3.941-7.331,6.126-11.763,4.374-8.861,9.434-19.6,14.668-31.912,2.623-6.151,5.293-12.692,7.949-19.577q.987-2.586,1.994-5.226a30.212,30.212,0,0,1,2.382-5.254,10.839,10.839,0,0,1,4.305-4.092,6.012,6.012,0,0,1,3.016-.768,3.066,3.066,0,0,1,1.574.571,3.4,3.4,0,0,1,1,1.333l.049.1-.025.117a5.225,5.225,0,0,1-.8,1.976,3.081,3.081,0,0,1-1.85,1.213,6.6,6.6,0,0,1-4.136-.759,6.511,6.511,0,0,1-3.662-7.184,5.8,5.8,0,0,1,2.408-3.619,6.748,6.748,0,0,1,4.213-1.2,4.651,4.651,0,0,1,3.89,2.145,2.235,2.235,0,0,1-.154,2.415,4.3,4.3,0,0,1-1.878,1.374,6.19,6.19,0,0,1-7.106-2.015,5.244,5.244,0,0,1-.962-3.739,6.394,6.394,0,0,1,1.54-3.493,5.341,5.341,0,0,1,3.337-1.846,4.293,4.293,0,0,1,3.606,1.239,2.674,2.674,0,0,1,.71,1.893,2.567,2.567,0,0,1-.855,1.826,4.194,4.194,0,0,1-3.625.977,4.584,4.584,0,0,1-2.887-2.32,9.615,9.615,0,0,1-1.085-3.42,12.172,12.172,0,0,1,.787-6.915,5.182,5.182,0,0,1,2.526-2.5,4.7,4.7,0,0,1,3.521.113,3.338,3.338,0,0,1,2.172,2.744,3.054,3.054,0,0,1-1.88,2.9,3.778,3.778,0,0,1-3.411-.05,4.645,4.645,0,0,1-2.107-2.6,6.465,6.465,0,0,1-.2-3.245,14.414,14.414,0,0,1,.685-3.076,5.623,5.623,0,0,1,1.8-2.62,7.188,7.188,0,0,1,2.792-1.388,3.071,3.071,0,0,1,1.632-.018,3.5,3.5,0,0,1,1.357.864,3.948,3.948,0,0,1,.873,1.314,2.17,2.17,0,0,1,.05,1.638,2.667,2.667,0,0,1-2.651,1.468,4.909,4.909,0,0,1-2.784-.934,7.565,7.565,0,0,1-2.977-4.667,7.891,7.891,0,0,1,.623-5.281,6.146,6.146,0,0,1,1.665-2.037,5.528,5.528,0,0,1,2.369-1.022,3.866,3.866,0,0,1,2.522.354,2.646,2.646,0,0,1,1.362,2.1,3.711,3.711,0,0,1-2.795,3.557,4.074,4.074,0,0,1-4.031-1.514,6.5,6.5,0,0,1-1.521-3.794c-.126-2.7.936-4.969,1.451-7.1q.905-3.2,1.653-5.835c.995-3.478,1.772-6.19,2.31-8.067.265-.9.471-1.591.62-2.093.144-.47.236-.7.236-.7s-.042.249-.16.726c-.13.507-.313,1.21-.546,2.114-.505,1.886-1.235,4.611-2.17,8.105q-.716,2.64-1.586,5.85c-.507,2.15-1.526,4.436-1.377,6.971a6.087,6.087,0,0,0,1.44,3.523,3.617,3.617,0,0,0,3.555,1.343,3.224,3.224,0,0,0,2.4-3.045,2.119,2.119,0,0,0-1.1-1.677,3.336,3.336,0,0,0-2.169-.28,4.985,4.985,0,0,0-2.123.928,5.558,5.558,0,0,0-1.494,1.855,7.312,7.312,0,0,0-.55,4.892,6.98,6.98,0,0,0,2.746,4.283,4.283,4.283,0,0,0,2.437.814,2.047,2.047,0,0,0,2.052-1.072,2.3,2.3,0,0,0-.787-2.258,2.889,2.889,0,0,0-1.094-.7,2.446,2.446,0,0,0-1.285.037,5.6,5.6,0,0,0-4.1,3.6,13.861,13.861,0,0,0-.64,2.931,5.74,5.74,0,0,0,.176,2.93,3.938,3.938,0,0,0,1.786,2.213,3.07,3.07,0,0,0,2.771.025,2.341,2.341,0,0,0,1.468-2.215,2.631,2.631,0,0,0-1.743-2.117,3.987,3.987,0,0,0-2.962-.1,4.48,4.48,0,0,0-2.141,2.153,11.47,11.47,0,0,0-.7,6.474,8.85,8.85,0,0,0,1,3.15,3.851,3.851,0,0,0,2.388,1.957,3.455,3.455,0,0,0,2.947-.789,1.847,1.847,0,0,0,.1-2.66,3.552,3.552,0,0,0-2.953-.986,4.588,4.588,0,0,0-2.844,1.589,5.109,5.109,0,0,0-.535,6.27,5.435,5.435,0,0,0,6.194,1.757,3.581,3.581,0,0,0,1.542-1.109,1.447,1.447,0,0,0,.1-1.606,3.908,3.908,0,0,0-3.254-1.736,5.557,5.557,0,0,0-5.822,4.2,5.741,5.741,0,0,0,3.242,6.345,5.886,5.886,0,0,0,3.635.706,2.913,2.913,0,0,0,2.079-2.59l.022.215a2.213,2.213,0,0,0-1.933-1.45,5.314,5.314,0,0,0-2.626.683,10.1,10.1,0,0,0-4.019,3.816,29.553,29.553,0,0,0-2.331,5.125q-1.014,2.64-2.007,5.226c-2.676,6.886-5.367,13.427-8.013,19.577-5.282,12.3-10.4,23.031-14.834,31.87-2.216,4.419-4.259,8.376-6.233,11.736a74.878,74.878,0,0,1-5.527,8.268A39.566,39.566,0,0,1,362.949,384.38Z" transform="translate(-362.949 -230.361)" fill="#fff"/>
          </g>
          <g id="Group_4401" data-name="Group 4401" transform="translate(61.692 19.449)">
            <path id="Path_1373" data-name="Path 1373" d="M450.339,199.616a19.244,19.244,0,0,0-1.349-5.482,21.528,21.528,0,0,0-10.642-10.66,28.561,28.561,0,0,0-10.258-2.508,48.343,48.343,0,0,0-12.166.928c-8.5,1.563-17.423,5.232-27.415,6.738a55.668,55.668,0,0,1-14.682-.016,59.145,59.145,0,0,1-13.195-3.577,58.23,58.23,0,0,1-19.214-12.692,51.7,51.7,0,0,1-9.31-12.45,16.7,16.7,0,0,1-1.091-2.185l-.72-1.641c-.172-.409-.313-.743-.427-1.013a1.277,1.277,0,0,1-.12-.356,1.455,1.455,0,0,1,.193.325c.133.262.3.584.5.981l.784,1.6a17.411,17.411,0,0,0,1.149,2.141,53.62,53.62,0,0,0,9.429,12.207,57.832,57.832,0,0,0,32.133,15.909,55.3,55.3,0,0,0,14.464,0c9.86-1.48,18.8-5.125,27.395-6.671a48.47,48.47,0,0,1,12.342-.869,28.894,28.894,0,0,1,10.451,2.655,21.583,21.583,0,0,1,10.683,11.038,16.044,16.044,0,0,1,1.032,4.117l.049,1.1A1.385,1.385,0,0,1,450.339,199.616Z" transform="translate(-329.747 -154.701)" fill="#455a64"/>
          </g>
          <g id="Group_4402" data-name="Group 4402" transform="translate(60.444 15.314)">
            <path id="Path_1374" data-name="Path 1374" d="M428.372,169.012a5.68,5.68,0,0,1-1.063.188c-.7.095-1.73.248-3.05.477-2.643.44-6.427,1.282-11.084,2.44a117.291,117.291,0,0,1-16.578,3.211,83.335,83.335,0,0,1-20.676-.448,87.693,87.693,0,0,1-19.973-5.371,85.514,85.514,0,0,1-14.993-7.785c-1.99-1.351-3.778-2.6-5.278-3.78-1.472-1.22-2.793-2.206-3.769-3.133-.934-.879-1.683-1.585-2.255-2.122a5.71,5.71,0,0,1-.749-.777,5.719,5.719,0,0,1,.855.663l2.345,2.007c1,.889,2.344,1.835,3.832,3.017,1.517,1.145,3.318,2.353,5.313,3.666a89.464,89.464,0,0,0,34.781,12.849,84.691,84.691,0,0,0,20.492.506,123.777,123.777,0,0,0,16.525-3.035c4.674-1.091,8.5-1.856,11.164-2.206,1.333-.185,2.372-.291,3.078-.335A5.72,5.72,0,0,1,428.372,169.012Z" transform="translate(-328.905 -151.912)" fill="#455a64"/>
          </g>
          <g id="Group_4403" data-name="Group 4403" transform="translate(152.74 79.942)">
            <path id="Path_1375" data-name="Path 1375" d="M400.537,247.31a1.819,1.819,0,0,1-.581-.171,9.215,9.215,0,0,1-1.537-.795,13.5,13.5,0,0,1-4.338-4.629,22.234,22.234,0,0,1-2.663-9.023,65.767,65.767,0,0,1-.013-11.5,69.936,69.936,0,0,1,1.905-11.337,32.548,32.548,0,0,1,3.309-8.8,13.561,13.561,0,0,1,4.365-4.6,9.035,9.035,0,0,1,1.545-.78,1.684,1.684,0,0,1,.583-.162c.03.067-.758.344-1.961,1.192a14.155,14.155,0,0,0-4.059,4.629,33.677,33.677,0,0,0-3.091,8.7,74.18,74.18,0,0,0-1.825,11.23,69.265,69.265,0,0,0-.047,11.365,22.4,22.4,0,0,0,2.428,8.823,14.039,14.039,0,0,0,4.033,4.649C399.78,246.96,400.57,247.237,400.537,247.31Z" transform="translate(-391.16 -195.504)" fill="#ff4a67"/>
          </g>
          <g id="Group_4405" data-name="Group 4405" transform="translate(76.09 107.21)">
            <rect id="Rectangle_421" data-name="Rectangle 421" width="23.953" height="9.028" rx="2.852" transform="translate(0 23.736) rotate(-11.103)" fill="#fff"/>
            <path id="Path_1376" data-name="Path 1376" d="M354.471,236.117l70.341-22.068a3.317,3.317,0,0,1,4.151,2.153h0a3.316,3.316,0,0,1-2.294,4.215l-71.929,19.433Z" transform="translate(-332.214 -213.897)" fill="#fff"/>
            <g id="Group_4404" data-name="Group 4404" transform="translate(61.526 0.062)">
              <path id="Path_1377" data-name="Path 1377" d="M393.681,226.4a15.092,15.092,0,0,1,2.331-.82l6.431-1.958c2.7-.835,6.012-1.712,9.516-2.861a6.405,6.405,0,0,0,2.3-1.417,3.536,3.536,0,0,0,.99-2.448,2.127,2.127,0,0,0-1.453-2.013,5.391,5.391,0,0,0-2.94.089l-21.089,6.784-6.424,1.985a14.9,14.9,0,0,1-2.388.627,15.267,15.267,0,0,1,2.293-.913c1.625-.566,3.763-1.314,6.347-2.216,5.386-1.829,12.771-4.359,21.072-7.015a6.085,6.085,0,0,1,3.385-.065,2.9,2.9,0,0,1,1.954,2.72,4.25,4.25,0,0,1-1.22,2.981,7.058,7.058,0,0,1-2.575,1.566c-3.635,1.152-6.878,1.947-9.622,2.722l-6.5,1.723A15.064,15.064,0,0,1,393.681,226.4Z" transform="translate(-380.959 -213.939)" fill="#ff4a67"/>
            </g>
          </g>
          <path id="Path_1378" data-name="Path 1378" d="M323.454,186c2.409,8.454-6.184,15.7-9.208,23.957-2.925,7.979-.434,16.922,3.165,24.621s8.341,15,10.185,23.3c4.545,20.459-13.952,42.5-10.428,63.158,1.282,7.524,4.313,15.377,6.94,22.544s2.443,13.723,0,20.954c-4,11.832-10.786,17.411-15.565,28.95-2.445,5.9-2.252,12.508-2.129,18.894s.077,13.044-2.765,18.763-9.346,10.142-15.513,8.485A22.743,22.743,0,0,0,315.3,444.8c8.111-4.325,12.648-13.109,16.53-21.441,18.8-40.343,28.745-43.749,28.231-88.255-.034-2.864-.569-47.442-.569-47.442s-7.041-1.877-11.1-4.677c-21-14.493-21.765-40.324-21.6-60.343" transform="translate(-288.135 -120.149)" fill="#263238"/>
        </g>
        <g id="Group_4411" data-name="Group 4411" transform="translate(189.207 111.802)">
          <path id="Path_1379" data-name="Path 1379" d="M347.245,277.083v16.8s-12.92,65.892-16.8,102.5-4.531,46.266-4.531,46.266,9.269,14.459,28.649-10.089,22.825-28.425,30.578-28.855c0,0-9.475-102.931-9.044-106.808s3.445-7.321,3.445-7.321Z" transform="translate(-325.917 -187.999)" fill="#ffbe9d"/>
          <g id="Group_4410" data-name="Group 4410" transform="translate(20.916)">
            <path id="Path_1380" data-name="Path 1380" d="M365.712,268.062s-21.1,27.994-22.825,31.87-2.584,6.03-2.584,6.03l32.3,12.489L404.042,284l11.628-30.578-3.445-36.176s-6.891-.43-8.182,5.6a45.624,45.624,0,0,0-.861,11.628l-9.65-7.752-15.545-4.737s-3.66,6.03,2.368,9.044,7.752,3.014,7.752,3.014l5.425,9.475-2.371,10.615-10.993-10.308a6.3,6.3,0,0,0-8.015-.5l-7.1,5.164-6.66-2.972-12.919,11.353L340.3,261.6s3.445,6.459,10.335,3.445l6.891-3.016Z" transform="translate(-339.891 -216.878)" fill="#ffbe9d"/>
            <g id="Group_4407" data-name="Group 4407">
              <path id="Path_1381" data-name="Path 1381" d="M340.437,311.747a8.54,8.54,0,0,1-.009-.9c.021-.593.071-1.475.212-2.627a31.586,31.586,0,0,1,.808-4.222,18.864,18.864,0,0,1,2.267-5.423c4.826-7.419,12.434-17.737,21.915-30.56l.055.38-8.194-6.012.289.033-4.259,1.872a28.7,28.7,0,0,1-4.538,1.767,7.367,7.367,0,0,1-5.042-.572,9.309,9.309,0,0,1-3.789-3.613l-.126-.211.193-.181c5.555-5.213,11.73-10.489,18.075-16.117l.19-.169.221.13,5.736,3.388-.38.009,6.712-4.417c1.161-.744,2.222-1.5,3.484-2.251a4.184,4.184,0,0,1,4.317.378l13.073,11.045-.615.206,2.261-10.136.042.274c-1.715-3-3.564-6.221-5.426-9.473l.334.193a11.619,11.619,0,0,1-2.676-.721c-.851-.313-1.693-.67-2.535-1.045s-1.678-.778-2.516-1.192c-.418-.208-.839-.479-1.259-.719a7.671,7.671,0,0,1-1.116-.977,5.488,5.488,0,0,1-1.494-3.958,8.735,8.735,0,0,1,1.146-4.031l.144-.261.3.092,15.543,4.74.071.022.056.046,9.647,7.755-.612.323a45.784,45.784,0,0,1,.82-11.465,6.953,6.953,0,0,1,3.141-4.769A9.966,9.966,0,0,1,412.381,217l.31.006.03.323c1.211,12.86,2.353,24.977,3.407,36.18l.008.076-.027.071c-4.31,11.272-8.218,21.493-11.684,30.555l-.018.049-.034.037-24.412,26.573c-2.866,3.1-5.091,5.5-6.621,7.152l-1.732,1.843c-.393.411-.608.609-.608.609s.178-.233.552-.661c.4-.448.952-1.075,1.677-1.892,1.5-1.675,3.7-4.111,6.517-7.248l24.234-26.735-.052.085c3.432-9.076,7.3-19.31,11.573-30.6l-.019.145c-1.079-11.2-2.246-23.315-3.484-36.171l.339.328A9.27,9.27,0,0,0,407.294,219a6.194,6.194,0,0,0-2.808,4.3,45.193,45.193,0,0,0-.795,11.257l.044.852-.658-.528-9.653-7.749.129.068-15.546-4.735.442-.168a7.978,7.978,0,0,0-1.033,3.643,4.7,4.7,0,0,0,1.288,3.422,6.91,6.91,0,0,0,.987.866c.391.219.753.46,1.165.664.829.409,1.656.809,2.488,1.179a21.548,21.548,0,0,0,4.9,1.7l.246.037.089.156L394,243.441l.074.129-.033.145c-.78,3.488-1.554,6.944-2.267,10.135l-.138.612-.479-.406L378.134,243.03a3.444,3.444,0,0,0-3.554-.316c-1.1.655-2.282,1.478-3.407,2.2l-6.72,4.406-.187.123-.193-.114c-1.987-1.179-3.954-2.347-5.729-3.4l.412-.039c-6.351,5.613-12.539,10.873-18.1,16.065l.067-.391a8.717,8.717,0,0,0,3.5,3.355,6.752,6.752,0,0,0,4.629.534,28.357,28.357,0,0,0,4.428-1.715l4.267-1.858.154-.067.135.1c2.861,2.117,5.62,4.16,8.17,6.046l.218.163-.162.218c-9.531,12.772-17.212,23.051-22.1,30.394a18.8,18.8,0,0,0-2.3,5.325,32.847,32.847,0,0,0-.875,4.181c-.165,1.144-.24,2.022-.286,2.612S340.437,311.747,340.437,311.747Z" transform="translate(-340.025 -216.995)" fill="#eb996e"/>
            </g>
            <g id="Group_4408" data-name="Group 4408" transform="translate(17.768 28.461)">
              <path id="Path_1382" data-name="Path 1382" d="M374.624,265.4c-.154-.024.417-2.285.654-5.954a13.442,13.442,0,0,0-1.02-6.224,16.442,16.442,0,0,0-5.143-5.777,127.967,127.967,0,0,0-11.955-8.141l-3.786-2.23a6.835,6.835,0,0,1-1.362-.875,6.285,6.285,0,0,1,1.5.609c.943.442,2.288,1.122,3.918,2.022a97.942,97.942,0,0,1,12.157,8.006,16.615,16.615,0,0,1,5.318,6.092,13.5,13.5,0,0,1,.915,6.551,29.272,29.272,0,0,1-.729,4.368A6.271,6.271,0,0,1,374.624,265.4Z" transform="translate(-352.009 -236.192)" fill="#eb996e"/>
            </g>
            <g id="Group_4409" data-name="Group 4409" transform="translate(62.738 17.794)">
              <path id="Path_1383" data-name="Path 1383" d="M382.591,255.432a29.815,29.815,0,0,1,.547-3.874,59.15,59.15,0,0,0-.159-18.7,29.936,29.936,0,0,1-.614-3.864,14.8,14.8,0,0,1,1.15,3.761,46.094,46.094,0,0,1,.16,18.894A14.906,14.906,0,0,1,382.591,255.432Z" transform="translate(-382.342 -228.997)" fill="#eb996e"/>
            </g>
          </g>
        </g>
      </g>
    </g>
    <g id="Speech_Bubble" data-name="Speech Bubble" transform="translate(264.416 79.295)">
      <g id="Group_4430" data-name="Group 4430">
        <g id="Group_4416" data-name="Group 4416">
          <g id="Group_4415" data-name="Group 4415">
            <g id="Group_4414" data-name="Group 4414">
              <path id="Path_1384" data-name="Path 1384" d="M334.344,217.729,318.89,190.493a72.972,72.972,0,1,0-17.478,19.442l-.025.033Z" transform="translate(-183.661 -79.2)" fill="#ff4a67"/>
              <g id="Group_4413" data-name="Group 4413">
                <path id="Path_1385" data-name="Path 1385" d="M334.447,217.823l-33-7.573-.291-.067.181-.239.025-.033.27.27a74.585,74.585,0,0,1-14.981,9.024,73.069,73.069,0,0,1-19.973,5.7,65.455,65.455,0,0,1-11.531.58c-1.984-.113-4-.16-6.038-.332l-6.154-.931a73.486,73.486,0,0,1-45.5-29.22,72.6,72.6,0,0,1-12.3-28.131,74.242,74.242,0,0,1,.861-32.391,71.837,71.837,0,0,1,15.607-29.945l2.974-3.272c.977-1.1,2.144-2.007,3.2-3.017,1.109-.955,2.11-2.036,3.3-2.879l3.494-2.614a30.719,30.719,0,0,1,3.617-2.393l3.695-2.243q1.937-.941,3.866-1.878a34.037,34.037,0,0,1,3.905-1.735,74.275,74.275,0,0,1,32.638-5.017,71.831,71.831,0,0,1,29.959,8.851,73.892,73.892,0,0,1,34.572,42.53,78.708,78.708,0,0,1,3.17,23.687,72.42,72.42,0,0,1-3.561,20.453,73.922,73.922,0,0,1-7.3,15.678l0-.188,15.293,27.326c-.658-1.146-5.6-9.739-15.614-27.144l-.055-.095.058-.093a73.959,73.959,0,0,0,7.181-15.625,72.258,72.258,0,0,0,3.46-20.327,78.355,78.355,0,0,0-3.213-23.5,73.336,73.336,0,0,0-34.337-42.087,71.209,71.209,0,0,0-29.67-8.731,73.641,73.641,0,0,0-32.3,4.986,33.321,33.321,0,0,0-3.862,1.72l-3.826,1.859-3.655,2.221a30.27,30.27,0,0,0-3.579,2.369l-3.457,2.586c-1.18.835-2.169,1.905-3.266,2.849-1.048,1-2.2,1.9-3.17,2.986L202.2,105.04a71.141,71.141,0,0,0-15.45,29.626,73.574,73.574,0,0,0-.873,32.059,71.962,71.962,0,0,0,12.152,27.863,72.919,72.919,0,0,0,45.04,29.036l6.1.938c2.019.175,4.022.228,5.991.345a65.28,65.28,0,0,0,11.445-.541,72.766,72.766,0,0,0,19.853-5.586,74.642,74.642,0,0,0,14.937-8.9l1.165-.891-.894,1.159-.025.033-.108-.3Z" transform="translate(-183.765 -79.295)" fill="#fff"/>
              </g>
            </g>
          </g>
        </g>
        <g id="Group_4429" data-name="Group 4429" transform="translate(45.549 67.225)">
          <g id="Group_4420" data-name="Group 4420" transform="translate(0 0.001)">
            <g id="Group_4419" data-name="Group 4419">
              <g id="Group_4418" data-name="Group 4418">
                <g id="Group_4417" data-name="Group 4417">
                  <path id="Path_1386" data-name="Path 1386" d="M226.317,130.554a5.915,5.915,0,1,1-5.914-5.914A5.914,5.914,0,0,1,226.317,130.554Z" transform="translate(-214.488 -124.64)" fill="#fff"/>
                </g>
              </g>
            </g>
          </g>
          <g id="Group_4424" data-name="Group 4424" transform="translate(23.67 0.001)">
            <g id="Group_4423" data-name="Group 4423">
              <g id="Group_4422" data-name="Group 4422">
                <g id="Group_4421" data-name="Group 4421">
                  <path id="Path_1387" data-name="Path 1387" d="M242.283,130.554a5.915,5.915,0,1,1-5.914-5.914A5.914,5.914,0,0,1,242.283,130.554Z" transform="translate(-230.454 -124.64)" fill="#fff"/>
                </g>
              </g>
            </g>
          </g>
          <g id="Group_4428" data-name="Group 4428" transform="translate(48.071)">
            <g id="Group_4427" data-name="Group 4427">
              <g id="Group_4426" data-name="Group 4426">
                <g id="Group_4425" data-name="Group 4425">
                  <path id="Path_1388" data-name="Path 1388" d="M257.951,127.6a5.914,5.914,0,1,1-8.08-2.166A5.913,5.913,0,0,1,257.951,127.6Z" transform="translate(-246.913 -124.639)" fill="#fff"/>
                </g>
              </g>
            </g>
          </g>
        </g>
      </g>
    </g>
    <g id="Table" transform="translate(33.421 616.848)">
      <g id="Group_4431" data-name="Group 4431">
        <path id="Path_1389" data-name="Path 1389" d="M701.165,442.268c0,.214-150.715.385-336.588.385-185.939,0-336.621-.172-336.621-.385s150.682-.387,336.621-.387C550.45,441.881,701.165,442.054,701.165,442.268Z" transform="translate(-27.956 -441.881)" fill="#ff4a67"/>
      </g>
    </g>
    <g id="Device" transform="translate(132.899 247.443)">
      <g id="Group_4435" data-name="Group 4435" transform="translate(383.24 351.953)">
        <g id="Group_4432" data-name="Group 4432" transform="translate(0 0.272)">
          <path id="Path_1390" data-name="Path 1390" d="M353.555,448.22s10.053-17.171,31.709-17.906,32.481,17.906,32.481,17.906Z" transform="translate(-353.555 -430.293)" fill="#2f1449"/>
        </g>
        <g id="Group_4434" data-name="Group 4434" transform="translate(29.508)">
          <g id="Group_4433" data-name="Group 4433">
            <path id="Path_1391" data-name="Path 1391" d="M385.449,447.773a27.25,27.25,0,0,1-.634-3.233,20.8,20.8,0,0,0-8.583-12.633,27.328,27.328,0,0,1-2.771-1.781,7.536,7.536,0,0,1,3.125,1.214,18.391,18.391,0,0,1,8.885,13.079A7.539,7.539,0,0,1,385.449,447.773Z" transform="translate(-373.458 -430.109)" fill="#263238"/>
          </g>
        </g>
      </g>
      <g id="Group_4436" data-name="Group 4436" transform="translate(168.857 361.052)">
        <path id="Path_1392" data-name="Path 1392" d="M409.929,444.561l0-.136a8.314,8.314,0,0,0-8.313-8.178H217.267a8.315,8.315,0,0,0-8.316,8.314H409.929Z" transform="translate(-208.951 -436.247)" fill="#2f1449"/>
      </g>
      <g id="Group_4442" data-name="Group 4442" transform="translate(0 0)">
        <path id="Path_1393" data-name="Path 1393" d="M106.473,239.163c0,3.88,2.906,235.4,2.906,235.4l171.954,41.372h14.222L286.5,192.713H273.576Z" transform="translate(-89.545 -192.713)" fill="#2f1449"/>
        <path id="Path_1394" data-name="Path 1394" d="M148.348,376.287,95.055,473.966h48.711c-8.711-.87,77.134,0,77.134,0l-77.134-20.453,24.118-54.783-2.058-22.443Z" transform="translate(-95.055 -104.129)" fill="#2f1449"/>
        <path id="Path_1395" data-name="Path 1395" d="M133.683,449.336l-5.772-182.048,52.361-5.021,6.455,194.382-18.7.949Z" transform="translate(-79.2 -159.149)" fill="#2f1449"/>
        <g id="Group_4437" data-name="Group 4437" transform="translate(0 130.113)">
          <path id="Path_1396" data-name="Path 1396" d="M209.9,455.073s-.022-.286-.033-.846c-.007-.581-.018-1.411-.031-2.5-.015-2.219-.034-5.466-.061-9.672-.025-8.461-.062-20.76-.108-36.21-.034-30.944-.082-74.489-.136-124.985l.369.369-61.784.016.385-.385v8.4c-.022,49.241-.044,95.075-.062,133.258v.083l-.04.071c-16.037,29.4-29.34,53.794-38.646,70.856-4.66,8.5-8.317,15.168-10.821,19.734-1.248,2.256-2.208,3.988-2.867,5.177-.652,1.168-1.011,1.758-1.011,1.758s.3-.621.924-1.806l2.783-5.223c2.468-4.586,6.073-11.284,10.665-19.819l38.406-70.986-.039.154c-.018-38.183-.04-84.016-.064-133.258,0-2.878,0-5.743,0-8.4v-.387h.385l61.784.016h.369v.371c-.055,50.5-.1,94.041-.138,124.985-.044,15.45-.082,27.749-.107,36.21-.027,4.206-.047,7.453-.061,9.672-.013,1.085-.024,1.915-.031,2.5C209.923,454.787,209.9,455.073,209.9,455.073Z" transform="translate(-95.055 -280.476)" fill="#fff"/>
        </g>
        <g id="Group_4438" data-name="Group 4438" transform="translate(38.995 294.601)">
          <path id="Path_1397" data-name="Path 1397" d="M155.192,391.425c.2.088-7.22,17.232-16.562,38.29s-17.075,38.066-17.269,37.98,7.219-17.227,16.563-38.293S155,391.339,155.192,391.425Z" transform="translate(-121.357 -391.425)" fill="#455a64"/>
        </g>
        <g id="Group_4439" data-name="Group 4439" transform="translate(184.009 0.83)">
          <path id="Path_1398" data-name="Path 1398" d="M226.95,515.666s-.027-.282-.043-.833c-.012-.58-.028-1.392-.049-2.443-.025-2.179-.064-5.34-.113-9.4-.061-8.16-.245-19.965-.532-34.551-.554-29.174-1.871-69.461-3.487-113.953s-2.847-84.808-3.262-113.989c-.218-14.59-.319-26.4-.288-34.557.015-4.056.025-7.217.033-9.4q.018-1.574.028-2.443c.01-.55.036-.832.036-.832s.028.282.043.832q.018.87.049,2.443c.025,2.179.064,5.339.113,9.395.061,8.159.245,19.963.532,34.549.554,29.172,1.871,69.463,3.487,113.971,1.616,44.491,2.847,84.789,3.262,113.97.218,14.59.319,26.4.288,34.558-.015,4.058-.025,7.219-.033,9.4-.012,1.051-.021,1.864-.028,2.443C226.975,515.384,226.95,515.666,226.95,515.666Z" transform="translate(-219.171 -193.273)" fill="#fff"/>
        </g>
        <g id="Group_4440" data-name="Group 4440" transform="translate(105.08 129.154)">
          <path id="Path_1399" data-name="Path 1399" d="M166.318,279.829c.214,0,.387,38.72.387,86.473,0,47.769-.173,86.482-.387,86.482s-.385-38.712-.385-86.482C165.933,318.549,166.1,279.829,166.318,279.829Z" transform="translate(-165.933 -279.829)" fill="#fff"/>
        </g>
        <g id="Group_4441" data-name="Group 4441" transform="translate(4.144 261.504)">
          <path id="Path_1400" data-name="Path 1400" d="M106.517,462.188a7.6,7.6,0,0,1-.74-1.03c-.242-.366-.523-.793-.85-1.285a14.19,14.19,0,0,1-1.067-1.812,45.391,45.391,0,0,1-4.7-12.528,61.666,61.666,0,0,1-.918-19.819,78.9,78.9,0,0,1,6.425-23.43,48.558,48.558,0,0,1,6.722-10.694,27.961,27.961,0,0,1,1.964-2.314c.68-.735,1.336-1.483,2.021-2.187,1.428-1.348,2.768-2.732,4.239-3.9a68.726,68.726,0,0,1,8.612-6.243c1.462-.8,2.839-1.643,4.23-2.322,1.41-.638,2.71-1.367,4.047-1.847a46.555,46.555,0,0,1,12.928-3.444,26.61,26.61,0,0,1,3.635-.221,7.737,7.737,0,0,1,1.269.015,7.926,7.926,0,0,1-1.263.141,33.338,33.338,0,0,0-3.6.363,48.739,48.739,0,0,0-12.754,3.65c-1.318.489-2.6,1.229-3.988,1.874-1.37.686-2.726,1.533-4.167,2.338a69.512,69.512,0,0,0-8.485,6.237c-1.448,1.164-2.766,2.54-4.173,3.878-.675.7-1.318,1.438-1.99,2.168a27.8,27.8,0,0,0-1.933,2.29,48.319,48.319,0,0,0-6.609,10.541,79.524,79.524,0,0,0-6.419,23.189,62.369,62.369,0,0,0,.744,19.625,47.486,47.486,0,0,0,4.434,12.5,15.016,15.016,0,0,0,1,1.835l.783,1.319A7.788,7.788,0,0,1,106.517,462.188Z" transform="translate(-97.85 -369.101)" fill="#fff"/>
        </g>
      </g>
    </g>
  </g>
</svg>
