<svg width="43" height="43" viewBox="0 0 43 43" fill="none" xmlns="http://www.w3.org/2000/svg">
<path d="M37.401 34.8663L30.2344 27.691C30.0022 27.4531 29.7437 27.2424 29.464 27.0631L27.6723 25.8254C31.3576 21.2599 31.3918 14.7472 27.7547 10.1431C24.1176 5.53896 17.7798 4.07218 12.4935 6.6111C7.20716 9.15002 4.3832 15.017 5.69343 20.7387C7.00366 26.4604 12.0984 30.5097 17.9615 30.4893C20.8067 30.4902 23.5677 29.5223 25.791 27.7448L27.1348 29.5386C27.2942 29.7696 27.4741 29.9858 27.6723 30.1844L34.839 37.3597C35.0072 37.5295 35.2361 37.625 35.475 37.625C35.7139 37.625 35.9428 37.5295 36.111 37.3597L37.3652 36.104C37.7053 35.7672 37.7211 35.2223 37.401 34.8663ZM17.9615 26.9017C13.0139 26.9017 9.00312 22.8861 9.00312 17.9326C9.00312 12.979 13.0139 8.96342 17.9615 8.96342C22.909 8.96342 26.9198 12.979 26.9198 17.9326C26.9198 20.3113 25.976 22.5926 24.2959 24.2747C22.6159 25.9567 20.3373 26.9017 17.9615 26.9017Z" fill="#333333" fill-opacity="0.6"/>
</svg>
